<?xml version="1.0" encoding="utf-8"?>

<!-- License: CC Attribution. Made by Yu-Chun Chou: https://www.behance.net/james_chou -->
<svg width="800px" height="800px" viewBox="0 0 1024 1024" class="icon"  version="1.1" xmlns="http://www.w3.org/2000/svg"><path d="M32 703.328a160 160 0 0 0 160 160h640a160 160 0 0 0 160-160H32z" fill="#E29460" /><path d="M832 831.328H192a160 160 0 0 1-156.768-128H32a160 160 0 0 0 160 160h640a160 160 0 0 0 160-160h-3.232a160 160 0 0 1-156.768 128z" fill="" /><path d="M960 479.328H64a64 64 0 0 0 0 128h896a64 64 0 0 0 0-128z" fill="#EF4D4D" /><path d="M960 575.328H64a63.904 63.904 0 0 1-61.76-48c-1.312 5.184-2.24 10.464-2.24 16a64 64 0 0 0 64 64h896a64 64 0 0 0 64-64c0-5.568-0.928-10.848-2.24-16a63.872 63.872 0 0 1-61.76 48z" fill="" /><path d="M512 159.328c-256 0-480 96-480 224h960c0-128-224-224-480-224z" fill="#E29460" /><path d="M32 639.328h960v32H32z" fill="#469FCC" /><path d="M752 271.328m-16 0a16 16 0 1 0 32 0 16 16 0 1 0-32 0Z" fill="" /><path d="M624 239.328m-16 0a16 16 0 1 0 32 0 16 16 0 1 0-32 0Z" fill="" /><path d="M464 303.328m-16 0a16 16 0 1 0 32 0 16 16 0 1 0-32 0Z" fill="" /><path d="M496 239.328m-16 0a16 16 0 1 0 32 0 16 16 0 1 0-32 0Z" fill="" /><path d="M304 239.328m-16 0a16 16 0 1 0 32 0 16 16 0 1 0-32 0Z" fill="" /><path d="M405.024 637.056l-126.4 126.4a31.968 31.968 0 0 1-45.248 0l-126.4-126.4h-24.224l152.896 152.896a31.968 31.968 0 0 0 45.248 0l152.896-152.896h-28.768z" fill="" /><path d="M233.376 763.456a31.968 31.968 0 0 0 45.248 0l126.4-126.4H106.976l126.4 126.4zM570.496 637.056l92.128 92.128a31.968 31.968 0 0 0 45.248 0L800 637.056h-229.504z" fill="#EDD87E" /><path d="M800 637.056l-92.128 92.128a31.968 31.968 0 0 1-45.248 0l-92.128-92.128h-24.224l118.624 118.624a31.968 31.968 0 0 0 45.248 0l118.624-118.624H800z" fill="" /><path d="M864 351.328c-96 0-160 64-160 64s-38.4-64-96-64-96 64-96 64-64-64-160-64-160 64-160 64-38.4-64-96-64-96 64-96 64v32s64 64 160 64 160-64 160-64 38.4 64 96 64 96-64 96-64 64 64 160 64 160-64 160-64 38.4 64 96 64 96-64 96-64v-32s-64-64-160-64z" fill="#60B748" /><path d="M928 511.328c-57.6 0-96-64-96-64s-64 64-160 64-160-64-160-64-38.4 64-96 64-96-64-96-64-64 64-160 64-160-64-160-64v32s64 64 160 64 160-64 160-64 38.4 64 96 64 96-64 96-64 64 64 160 64 160-64 160-64 38.4 64 96 64 96-64 96-64v-32s-38.4 64-96 64z" fill="" /></svg>