<?xml version="1.0" encoding="iso-8859-1"?>
<!-- Generator: Adobe Illustrator 18.0.0, SVG Export Plug-In . SVG Version: 6.00 Build 0)  -->
<!DOCTYPE svg PUBLIC "-//W3C//DTD SVG 1.1//EN" "http://www.w3.org/Graphics/SVG/1.1/DTD/svg11.dtd">
<!-- License: CC0. Made by SVG Repo: https://www.svgrepo.com/svg/148041/chicken -->
<svg version="1.1" id="Capa_1" xmlns="http://www.w3.org/2000/svg" xmlns:xlink="http://www.w3.org/1999/xlink" x="0px" y="0px"
	 viewBox="0 0 362.003 362.003" style="enable-background:new 0 0 362.003 362.003;" xml:space="preserve">
<g>
	<path style="fill:#84BD93;" d="M342.807,286.529H39.267c-2.294,0-4.162,1.705-4.162,4.001c0,2.295,1.868,3.999,4.162,3.999h303.541
		c2.294,0,4.162-1.704,4.162-3.999C346.969,288.234,345.102,286.529,342.807,286.529z"/>
	<path style="fill:#FDD44B;" d="M90.056,102.863c-1.431-1.411-2.236-3.338-2.236-5.348c0-2.009,0.805-3.936,2.234-5.349
		c5.41-5.344,7.662-10.141,5.764-5.884c-0.637-1.276-1.972-4.698-3.221-5.977c-2.394-2.455-5.639-4.776-9.14-4.776h-0.041
		c-0.974,0-2.353,0.191-3.281,0.393c0.533,7.094-1.663,15.07-5.686,20.761l30.813,30.062c2.361-0.718,4.855-1.185,7.462-1.604
		L90.056,102.863z"/>
	<g>
		<path style="fill:#FDD44B;" d="M65.012,76.192c0.134,0.386,0.257,0.774,0.341,1.166C65.269,76.966,65.147,76.578,65.012,76.192z"
			/>
		<path style="fill:#FDD44B;" d="M61.636,71c0.507,0.526,0.959,1.049,1.367,1.572C62.594,72.049,62.142,71.526,61.636,71z"/>
		<path style="fill:#FDD44B;" d="M64.301,74.582c0.207,0.387,0.407,0.774,0.563,1.164C64.707,75.357,64.509,74.969,64.301,74.582z"
			/>
		<path style="fill:#FDD44B;" d="M21.873,115.662c-0.402-0.213-0.804-0.459-1.205-0.731
			C21.069,115.204,21.471,115.448,21.873,115.662z"/>
		<path style="fill:#FDD44B;" d="M58.933,102.986c-1.457-1.413-2.283-3.356-2.285-5.387c-0.004-2.031,0.816-3.977,2.271-5.394
			c1.243-1.212,4.301-4.473,5.826-8.562c0.818-2.195,1.019-4.213,0.629-6.156c-0.916-0.21-1.86-0.333-2.83-0.343
			c-3.657,0.006-7.127,1.378-9.727,3.979c-3.015,3.016-4.394,7.173-3.784,11.402c0.339,2.346-0.448,4.715-2.126,6.391
			c-1.676,1.677-4.044,2.465-6.39,2.124c-4.226-0.609-8.386,0.767-11.403,3.784c-2.66,2.661-4.138,6.34-4.054,10.09
			c0.015,0.65,0.091,1.283,0.198,1.905c-1.049-0.167-2.088-0.503-3.123-1.018c5.349,2.681,10.838,0.386,17.182-3.954
			c1.92-1.314,6.419-4.391,10.927-0.831c0.227,0.179,0.442,0.371,0.648,0.575l32.191,32.081c0.582-1.024,1.196-2.028,1.885-2.987
			c1.734-2.418,3.815-4.574,6.181-6.48L58.933,102.986z"/>
		<path style="fill:#FDD44B;" d="M63.276,72.965c0.289,0.396,0.571,0.791,0.804,1.188C63.845,73.756,63.566,73.36,63.276,72.965z"/>
		<path style="fill:#FDD44B;" d="M18.847,113.506c0.485,0.443,0.971,0.825,1.456,1.177
			C19.818,114.332,19.332,113.949,18.847,113.506z"/>
	</g>
	<g>
		<path style="fill:#EF8829;" d="M101.923,190.636c-0.309-0.561-0.635-1.116-0.93-1.68
			C101.288,189.521,101.614,190.075,101.923,190.636z"/>
		<path style="fill:#EF8829;" d="M118.707,212.818c0.963,0.955,1.943,1.872,2.937,2.775
			C120.651,214.691,119.669,213.773,118.707,212.818z"/>
		<path style="fill:#EF8829;" d="M179.814,159.603c1.041,0.872,2.032,1.748,2.946,2.627
			C181.844,161.351,180.857,160.476,179.814,159.603z"/>
		<path style="fill:#EF8829;" d="M175.847,156.519c1.192,0.855,2.294,1.716,3.353,2.58
			C178.14,158.235,177.038,157.374,175.847,156.519z"/>
		<path style="fill:#EF8829;" d="M185.526,165.114c-0.823-0.93-1.708-1.858-2.665-2.782
			C183.816,163.255,184.704,164.183,185.526,165.114z"/>
		<path style="fill:#EF8829;" d="M185.602,165.198c0.847,0.963,1.625,1.928,2.337,2.895
			C187.228,167.126,186.45,166.161,185.602,165.198z"/>
		<path style="fill:#EF8829;" d="M115.856,209.904c-0.594-0.641-1.159-1.313-1.738-1.972
			C114.698,208.592,115.262,209.263,115.856,209.904z"/>
		<path style="fill:#EF8829;" d="M187.94,168.093c-0.67-0.519-1.352-1.036-2.07-1.552c-14.494-10.397-34.896-17.114-51.978-17.114
			c-12.562,0-22.038,3.568-26.685,10.045c-5.44,7.584-4.945,20.142,1.36,34.453c3.588,8.147,8.752,16.162,14.836,23.243
			c1.862,1.603,3.751,3.14,5.686,4.528c8.817,6.325,17.301,9.532,25.216,9.532c14.059,0,24.378-10.268,30.558-18.882
			C193.426,200.408,199.669,184.029,187.94,168.093z"/>
		<path style="fill:#EF8829;" d="M108.414,200.829c-0.5-0.685-0.987-1.377-1.468-2.073
			C107.427,199.453,107.914,200.143,108.414,200.829z"/>
		<path style="fill:#EF8829;" d="M105.054,195.904c-0.422-0.659-0.845-1.317-1.249-1.983
			C104.209,194.588,104.632,195.244,105.054,195.904z"/>
		<path style="fill:#EF8829;" d="M112.021,205.498c-0.558-0.679-1.095-1.375-1.636-2.068
			C110.926,204.124,111.462,204.818,112.021,205.498z"/>
	</g>
	<g>
		<path style="fill:#EF8829;" d="M73.788,261.004c-0.145-0.23-0.287-0.464-0.426-0.704C73.501,260.54,73.642,260.772,73.788,261.004
			z"/>
		<path style="fill:#EF8829;" d="M320.769,146.797c-0.486-0.503-0.967-1.007-1.481-1.499
			C319.802,145.79,320.283,146.294,320.769,146.797z"/>
		<path style="fill:#EF8829;" d="M315.409,141.899c0.482,0.383,0.919,0.786,1.38,1.178
			C316.328,142.686,315.891,142.283,315.409,141.899z"/>
		<path style="fill:#EF8829;" d="M75.542,263.475c-0.054-0.067-0.105-0.144-0.159-0.212
			C75.438,263.331,75.487,263.408,75.542,263.475z"/>
		<path style="fill:#EF8829;" d="M322.702,148.894c0.477,0.55,0.938,1.105,1.386,1.667
			C323.64,149.999,323.179,149.444,322.702,148.894z"/>
		<path style="fill:#EF8829;" d="M80.002,267.699c-0.111-0.083-0.224-0.182-0.336-0.268
			C79.778,267.518,79.889,267.615,80.002,267.699z"/>
		<path style="fill:#EF8829;" d="M187.17,146.216c-0.83-0.645-1.683-1.282-2.561-1.912
			C185.487,144.934,186.338,145.572,187.17,146.216z"/>
		<path style="fill:#EF8829;" d="M94.097,206.55c-0.383-0.564-0.777-1.121-1.149-1.69C93.321,205.429,93.713,205.985,94.097,206.55z
			"/>
		<path style="fill:#EF8829;" d="M324.67,151.334c-1.155-0.89-2.345-1.763-3.613-2.599c-11.887-7.83-35.505-16.975-62.944-16.975
			c-23.863,0-41.466,5.076-68.527,16.404c11.843,9.907,18.477,21.381,19.723,34.181c1.216,12.511-3.013,25.916-12.231,38.766
			c-11.806,16.454-26.596,25.152-42.773,25.152c-11.123,0-22.556-4.155-33.98-12.35c-8.593-6.164-16.643-14.303-23.365-23.333
			c0.232,0.312,0.439,0.639,0.674,0.949c-1.821,2.575-3.505,5.182-5.032,7.813c-11.622,20.016-15.318,36.625-10.692,48.029
			c0.322,0.793,0.688,1.032,1.07,1.746c1.727,0.971,3.228,1.413,4.092,1.413h185.97c20.134,0,47.041-28.863,58.757-63.615
			C337.571,189.786,337.747,168.399,324.67,151.334z M272.266,232.067c-1.394,1.394-3.338,2.195-5.313,2.195
			c-1.983,0-3.919-0.802-5.311-2.195c-1.403-1.403-2.206-3.338-2.206-5.322c0-1.974,0.802-3.909,2.206-5.312
			c1.392-1.394,3.328-2.195,5.311-2.195c1.975,0,3.919,0.801,5.313,2.195c1.404,1.403,2.204,3.338,2.204,5.312
			C274.47,228.729,273.67,230.664,272.266,232.067z M283.933,209.797c-1.394,1.404-3.338,2.205-5.313,2.205
			c-1.975,0-3.919-0.801-5.313-2.205c-1.402-1.393-2.204-3.328-2.204-5.312c0-1.985,0.803-3.919,2.204-5.312
			c1.394-1.404,3.338-2.205,5.313-2.205c1.975,0,3.919,0.801,5.313,2.205c1.402,1.393,2.204,3.327,2.204,5.312
			C286.137,206.469,285.335,208.404,283.933,209.797z M302.624,226.665c-1.392,1.404-3.338,2.205-5.311,2.205
			c-1.975,0-3.909-0.801-5.313-2.205c-1.403-1.393-2.204-3.338-2.204-5.312c0-1.975,0.801-3.919,2.204-5.312
			c1.394-1.403,3.338-2.205,5.313-2.205c1.985,0,3.919,0.802,5.311,2.205c1.403,1.393,2.206,3.337,2.206,5.312
			C304.83,223.327,304.027,225.272,302.624,226.665z"/>
		<path style="fill:#EF8829;" d="M77.46,265.527c0.18,0.174,0.357,0.336,0.538,0.501C77.819,265.865,77.639,265.7,77.46,265.527z"/>
		<path style="fill:#EF8829;" d="M82.465,269.327c-0.192-0.113-0.384-0.227-0.581-0.35C82.084,269.102,82.27,269.212,82.465,269.327
			z"/>
	</g>
	<path style="fill:#3F2D20;" d="M342.807,271.523h-35.366c16.808-14.367,31.104-37.069,38.602-59.31
		c11.467-34.018,0.973-67.797-26.739-86.055c-14.277-9.405-40.481-19.455-71.215-19.455c-30.669,0-52.22,7.733-89.546,24.117
		c-8.102-2.912-16.51-4.927-24.697-5.851l-28.295-27.934c7.192-10.257,9.907-24.232-2.153-36.591
		c-5.237-5.367-12.288-8.334-19.858-8.357h-0.082c-5.54,0-10.98,1.654-15.594,4.644c-4.448-2.968-9.682-4.592-15.203-4.643
		c-0.088-0.001-0.174-0.001-0.26-0.001c-7.539,0-14.903,3.047-20.239,8.383c-4.285,4.287-7.045,9.836-7.973,15.725
		c-5.89,0.928-11.44,3.688-15.727,7.975c-5.552,5.551-8.631,13.228-8.455,21.062c0.17,7.526,3.261,14.407,8.699,19.375
		c10.14,9.262,22.152,9.859,35.745,1.793l33.993,33.877c-0.38,7.188,0.91,15.116,3.886,23.514
		c-4.89,5.788-9.177,11.816-12.754,17.977c-14.33,24.68-18.202,45.376-11.507,61.512c1.3,3.133,2.915,5.862,4.694,8.242H29.244
		c-10.585,0-19.196,8.611-19.196,19.197c0,10.585,8.611,19.196,19.196,19.196h313.563c10.585,0,19.196-8.611,19.196-19.196
		C362.003,280.134,353.392,271.523,342.807,271.523z M342.807,294.882H29.244c-2.294,0-4.162-1.866-4.162-4.162
		c0-2.295,1.867-4.163,4.162-4.163h313.563c2.294,0,4.162,1.867,4.162,4.163C346.969,293.015,345.102,294.882,342.807,294.882z
		 M50.245,111.018c-4.508-3.56-9.007-0.483-10.927,0.831c-7.648,5.233-14.055,7.516-20.47,1.657
		c-2.38-2.173-3.733-5.233-3.809-8.614c-0.084-3.751,1.394-7.429,4.054-10.09c3.017-3.017,7.176-4.393,11.403-3.784
		c2.345,0.341,4.714-0.447,6.39-2.124c1.678-1.676,2.465-4.044,2.126-6.39c-0.611-4.23,0.769-8.386,3.784-11.402
		c2.6-2.602,6.071-3.974,9.727-3.98c3.5,0.033,6.736,1.41,9.114,3.879c3.899,4.048,4.859,7.947,3.109,12.643
		c-1.525,4.088-4.583,7.35-5.826,8.562c-1.455,1.417-2.275,3.363-2.271,5.394c0.002,2.031,0.828,3.974,2.285,5.387l32.216,31.221
		c-2.365,1.906-4.446,4.062-6.18,6.48c-0.689,0.959-1.304,1.963-1.885,2.987l-32.191-32.081
		C50.687,111.389,50.472,111.197,50.245,111.018z M78.001,68.269c1.697-0.748,3.543-1.148,5.456-1.148h0.041
		c3.5,0.011,6.746,1.367,9.14,3.822c7.668,7.857,2.827,15.878-2.584,21.222c-1.429,1.413-2.234,3.34-2.234,5.349
		c0,2.01,0.805,3.936,2.236,5.348l22.667,22.378c-2.607,0.419-5.102,0.987-7.462,1.705l-30.812-29.86
		C80.196,88.956,83.103,78.47,78.001,68.269z M97.183,149.45c4.647-6.478,14.124-10.045,26.686-10.045
		c17.082,0,37.484,6.717,51.978,17.114c26.772,19.207,19.68,40.96,9.015,55.827c-6.18,8.614-16.498,18.882-30.558,18.882
		c-7.914,0-16.399-3.207-25.216-9.532c-12.722-9.125-24.141-23.254-30.544-37.793C92.239,169.592,91.743,157.034,97.183,149.45z
		 M82.578,209.318c2.012-3.466,4.293-6.892,6.804-10.255c7.711,13.553,18.813,26.149,30.942,34.849
		c11.424,8.196,22.857,12.35,33.98,12.35c16.177,0,30.967-8.697,42.773-25.152c9.218-12.85,13.446-26.255,12.231-38.766
		c-1.411-14.498-9.721-27.297-24.699-38.041c-2.473-1.774-5.08-3.442-7.782-5.012c28.632-12.137,46.604-17.556,71.262-17.556
		c27.439,0,51.058,9.145,62.944,16.975c26.498,17.46,28.099,46.936,20.764,68.699c-11.716,34.752-38.623,64.112-58.757,64.112
		H87.071c-2.703-0.959-11.332-4.681-15.185-14.176C67.26,245.943,70.956,229.334,82.578,209.318z"/>
	<path style="fill:#3F2D20;" d="M266.953,234.262c1.975,0,3.919-0.801,5.313-2.195c1.404-1.403,2.204-3.338,2.204-5.322
		c0-1.974-0.801-3.909-2.204-5.312c-1.394-1.394-3.338-2.195-5.313-2.195c-1.983,0-3.919,0.801-5.311,2.195
		c-1.403,1.403-2.206,3.338-2.206,5.312c0,1.984,0.802,3.919,2.206,5.322C263.034,233.461,264.97,234.262,266.953,234.262z"/>
	<path style="fill:#3F2D20;" d="M297.313,228.87c1.973,0,3.919-0.802,5.311-2.205c1.403-1.393,2.206-3.338,2.206-5.312
		c0-1.975-0.803-3.919-2.206-5.312c-1.392-1.403-3.326-2.205-5.311-2.205c-1.975,0-3.919,0.802-5.313,2.205
		c-1.404,1.393-2.204,3.337-2.204,5.312c0,1.974,0.801,3.919,2.204,5.312C293.404,228.069,295.338,228.87,297.313,228.87z"/>
	<path style="fill:#3F2D20;" d="M278.62,212.002c1.975,0,3.919-0.801,5.313-2.205c1.401-1.393,2.204-3.328,2.204-5.312
		c0-1.985-0.803-3.919-2.204-5.312c-1.394-1.404-3.338-2.205-5.313-2.205c-1.975,0-3.919,0.801-5.313,2.205
		c-1.402,1.393-2.204,3.327-2.204,5.312c0,1.984,0.803,3.919,2.204,5.312C274.701,211.2,276.645,212.002,278.62,212.002z"/>
</g>
</svg>
