<?xml version="1.0" encoding="utf-8"?>
<!-- Generator: Adobe Illustrator 27.5.0, SVG Export Plug-In . SVG Version: 6.00 Build 0)  -->
<svg version="1.1" xmlns="http://www.w3.org/2000/svg" xmlns:xlink="http://www.w3.org/1999/xlink" x="0px" y="0px"
	 viewBox="0 0 500 500" style="enable-background:new 0 0 500 500;" xml:space="preserve">
<g id="Floor">
	<ellipse id="Floor_4_" style="fill:#F0F0F0;" cx="250" cy="356.463" rx="217.36" ry="128.928"/>
</g>
<g id="Shadows">
	<ellipse id="Shadow_35_" style="fill:#E0E0E0;" cx="330.969" cy="337.091" rx="70.773" ry="40.861"/>
	<ellipse id="Shadow_20_" style="fill:#E0E0E0;" cx="153.072" cy="380.162" rx="65.054" ry="37.559"/>
	<path id="Shadow_17_" style="fill:#E0E0E0;" d="M164.018,410.298l111.573,64.416c0.598,0.345,1.567,0.345,2.165,0l58.765-33.928
		c0.598-0.345,0.598-0.905,0-1.25l-111.572-64.417c-0.598-0.345-1.567-0.345-2.165,0l-58.766,33.929
		C163.42,409.393,163.42,409.953,164.018,410.298z"/>
</g>
<g id="Plants">
	<g id="Plants_6_">
		<g id="XMLID_1491_">
			<path id="XMLID_1509_" style="fill:#27DEBF;" d="M425.264,312.158l-9.526-5.5c0,0-2.334-20.402-0.781-36.202
				c2.182-22.202,16.52-48.917,33.626-42.643c17.105,6.274-7.843,28.885-13.396,47.717
				C429.633,294.361,425.264,312.158,425.264,312.158z"/>
			<path id="XMLID_1508_" style="opacity:0.15;" d="M425.264,312.158l-9.526-5.5c0,0-2.334-20.402-0.781-36.202
				c2.182-22.202,16.52-48.917,33.626-42.643c17.105,6.274-7.843,28.885-13.396,47.717
				C429.633,294.361,425.264,312.158,425.264,312.158z"/>
			<path id="XMLID_1506_" style="fill:#FFFFFF;" d="M420.254,309.842c0.006,0,0.013,0,0.02,0c0.318-0.011,0.568-0.277,0.557-0.596
				c-1.673-49.333,22.885-74.149,23.133-74.393c0.227-0.224,0.23-0.589,0.006-0.815c-0.226-0.227-0.591-0.23-0.816-0.006
				c-0.252,0.249-25.166,25.421-23.477,75.255C419.688,309.597,419.944,309.842,420.254,309.842z"/>
		</g>
		<g id="XMLID_1480_">
			<path id="XMLID_1489_" style="fill:#27DEBF;" d="M431.254,315.587l-6.779-3.914c0,0-1.153-14,5.711-31.007
				c5.975-14.806,20.802-27.089,28.259-24.508c7.457,2.581,7.272,7.869,3.636,13.416
				C458.445,275.121,436.326,288.343,431.254,315.587z"/>
			<path id="XMLID_1487_" style="fill:#FFFFFF;" d="M427.678,314.1h0.003c0.318-0.002,0.576-0.261,0.574-0.58
				c-0.134-31.192,29.154-52.274,29.45-52.483c0.259-0.184,0.322-0.543,0.137-0.804c-0.182-0.259-0.541-0.323-0.804-0.137
				c-0.3,0.212-30.074,21.644-29.937,53.43C427.103,313.843,427.361,314.1,427.678,314.1z"/>
		</g>
	</g>
	<g id="Plants_7_">
		<g id="XMLID_1999_">
			<g id="XMLID_2004_">
				<path id="XMLID_2005_" style="fill:#27DEBF;" d="M79.633,303.342l8.033-4.641c0,0,4.781-19.864,2.876-37.738
					c-2.679-25.13-19.22-34.586-25.511-32.419c-6.29,2.167-8.112,9.48,2.296,24.447C73.467,261.822,81.01,280.215,79.633,303.342z"
					/>
			</g>
			<g id="XMLID_2002_" style="opacity:0.15;">
				<path id="XMLID_2003_" d="M79.633,303.342l8.033-4.641c0,0,4.781-19.864,2.876-37.738c-2.679-25.13-19.22-34.586-25.511-32.419
					c-6.29,2.167-8.112,9.48,2.296,24.447C73.467,261.822,81.01,280.215,79.633,303.342z"/>
			</g>
			<g id="XMLID_2000_">
				<path id="XMLID_2001_" style="fill:#FFFFFF;" d="M82.961,293.583c-0.026-0.001-0.051-0.005-0.077-0.009
					c-0.302-0.058-0.501-0.349-0.443-0.651c4.403-23.179-3.694-49.225-13.721-60.063c-0.209-0.225-0.195-0.579,0.031-0.787
					c0.226-0.206,0.579-0.195,0.787,0.031c10.21,11.036,18.465,37.507,13.997,61.027C83.483,293.407,83.234,293.597,82.961,293.583z
					"/>
			</g>
		</g>
		<g id="XMLID_1991_">
			<g id="XMLID_1996_">
				<path id="XMLID_1998_" style="fill:#27DEBF;" d="M58.591,315.494c-1.269,0.646-4.643-2.243-5.584-2.945
					c-1.61-1.202-2.881-2.854-3.688-4.69c-0.939-2.137-1.089-4.384-0.646-6.673c0.23-1.187,0.623-2.336,1.015-3.48
					c0.385-1.123,0.77-2.246,1.155-3.37c0.38-1.108,0.765-2.255,0.675-3.423c-0.181-2.353-2.174-4.096-3.99-5.604
					c-2.008-1.668-4.077-3.84-3.923-6.654c0.119-2.171,1.345-4.132,2.777-5.769c1.432-1.637,3.105-3.062,4.412-4.8
					c0.941-1.251,1.701-2.738,1.637-4.303c-0.04-0.972-0.395-1.904-0.815-2.781c-0.902-1.883-2.128-3.628-2.715-5.632
					c-0.586-2.004-0.365-4.448,1.243-5.779c1.32-1.093,3.202-1.16,4.904-0.961c1.575,0.184,3.082,0.975,4.425,1.813
					c4.344,2.71,6.627,8.132,11.273,10.283c1.792,0.83,3.788,1.092,5.669,1.693c1.881,0.6,3.776,1.672,4.57,3.48
					c1.566,3.565-1.881,7.687-0.844,11.439c0.918,3.321,4.029,4.731,5.663,7.764c0.715,1.327,0.819,2.824,0.618,4.318
					c-0.341,2.528-0.807,4.372-2.167,7.134c-1.124,2.282-4.291,6.596-4.291,6.596S58.785,315.395,58.591,315.494z"/>
			</g>
			<g id="XMLID_1994_">
				<path id="XMLID_1995_" style="fill:#FFFFFF;" d="M70.886,309.086c-0.007,0-0.015-0.001-0.015-0.001
					c-0.314-0.029-0.539-0.301-0.512-0.607c2.034-22.046-7.146-46.962-14.358-54.429c-0.213-0.221-0.208-0.574,0.014-0.788
					c0.222-0.213,0.574-0.206,0.788,0.014c7.357,7.618,16.728,32.949,14.667,55.306C71.441,308.879,71.183,309.101,70.886,309.086z"
					/>
			</g>
			<g id="XMLID_1992_">
				<path id="XMLID_1993_" style="fill:#FFFFFF;" d="M68.696,281.902c-0.054-0.003-0.109-0.013-0.163-0.033
					c-6.987-2.552-15.815-3.385-15.902-3.393c-0.307-0.029-0.532-0.3-0.504-0.606c0.028-0.306,0.273-0.536,0.606-0.504
					c0.09,0.009,9.057,0.854,16.182,3.457c0.289,0.105,0.438,0.425,0.332,0.714C69.161,281.772,68.934,281.914,68.696,281.902z"/>
			</g>
		</g>
	</g>
</g>
<g id="Speech_Bubble">
	<g id="Speach_Bubble_8_">
		<g>
			<path id="XMLID_1504_" style="fill:#27DEBF;" d="M269.05,21.42l-72.542,41.893c-0.618,0.357-1.119,1.225-1.119,1.938v30.165
				c0,0.714,0.504,1.577,1.125,1.927l4.009,2.247c0.622,0.351,1.626,0.346,2.244-0.011l72.542-41.893
				c0.618-0.357,1.119-1.225,1.119-1.938V25.584c0-0.714-0.504-1.577-1.125-1.927l-4.009-2.247
				C270.673,21.058,269.668,21.063,269.05,21.42z"/>
			<path id="XMLID_1502_" style="fill:#27DEBF;" d="M201.649,98.935V68.769c0-0.714,0.501-1.582,1.119-1.938l72.542-41.893
				c0.618-0.357,1.119-0.068,1.119,0.646v30.165c0,0.714-0.501,1.582-1.119,1.938L202.768,99.58
				C202.15,99.937,201.649,99.648,201.649,98.935z"/>
			<path id="XMLID_1501_" style="opacity:0.2;" d="M202.768,99.58c-0.596,0.346-1.684,0.358-2.246,0.013l-4.007-2.252
				c-0.62-0.346-1.127-1.209-1.127-1.923V65.251c0-0.372,0.14-0.78,0.357-1.142l6.234,3.559c-0.207,0.346-0.331,0.744-0.331,1.101
				v30.163C201.649,99.586,202.109,99.963,202.768,99.58z"/>
			<path id="XMLID_1495_" style="opacity:0.4;fill:#FFFFFF;" d="M276.414,25.381c-0.088-0.563-0.548-0.765-1.106-0.445
				L202.77,66.831c-0.31,0.181-0.589,0.486-0.791,0.837l-6.24-3.559c0.202-0.336,0.47-0.625,0.77-0.796l72.543-41.895
				c0.615-0.357,1.618-0.362,2.243-0.01l4.007,2.247C275.866,23.975,276.336,24.714,276.414,25.381z"/>
		</g>
		<g>
			<path id="XMLID_1494_" style="fill:#27DEBF;" d="M192.322,88.77c-0.703-0.419-5.965-3.381-6.135-3.479
				c-0.517-0.315-0.703-1.08-0.222-1.597l9.521-9.88l6.162,3.503l-9.516,9.885C191.667,87.698,191.852,88.429,192.322,88.77z"/>
			<path id="XMLID_1493_" style="opacity:0.4;fill:#FFFFFF;" d="M192.322,88.77c-0.703-0.419-5.965-3.381-6.135-3.479
				c-0.517-0.315-0.703-1.08-0.222-1.597l9.521-9.88l6.162,3.503l-9.516,9.885C191.667,87.698,191.852,88.429,192.322,88.77z"/>
			<path id="XMLID_1492_" style="fill:#27DEBF;" d="M201.649,77.318L192.13,87.2c-0.645,0.692-0.172,1.641,0.64,1.716l8.879-0.038
				L201.649,77.318z"/>
		</g>
		<g>
			<path style="fill:#FAFAFA;" d="M213.949,68.072c0.107-0.063,0.201-0.057,0.279,0.02c0.079,0.076,0.118,0.197,0.118,0.363v1.609
				c0,0.166-0.037,0.343-0.11,0.529c-0.074,0.186-0.145,0.352-0.214,0.497l-2.15,4.735c0.441-0.164,0.841-0.229,1.2-0.195
				c0.358,0.036,0.665,0.172,0.921,0.41c0.255,0.238,0.451,0.582,0.589,1.032c0.138,0.45,0.207,1,0.207,1.649
				c0,0.786-0.1,1.543-0.303,2.271c-0.201,0.729-0.48,1.409-0.84,2.039c-0.358,0.631-0.78,1.199-1.267,1.707
				c-0.486,0.508-1.014,0.926-1.584,1.254c-0.688,0.397-1.284,0.617-1.789,0.66c-0.506,0.043-0.928-0.035-1.268-0.232
				c-0.338-0.197-0.596-0.495-0.772-0.893c-0.177-0.396-0.28-0.828-0.31-1.295c-0.011-0.176,0.026-0.346,0.11-0.507
				c0.083-0.161,0.179-0.273,0.287-0.335l1.163-0.672c0.099-0.057,0.18-0.055,0.244,0.006c0.064,0.063,0.129,0.164,0.198,0.306
				c0.059,0.147,0.138,0.272,0.235,0.374c0.099,0.103,0.229,0.171,0.391,0.206c0.162,0.034,0.365,0.02,0.611-0.048
				c0.246-0.064,0.545-0.201,0.898-0.404c0.6-0.347,1.083-0.811,1.451-1.395c0.369-0.582,0.553-1.214,0.553-1.895
				c0-0.681-0.184-1.063-0.553-1.145c-0.368-0.082-0.852,0.05-1.451,0.397l-1.222,0.705c-0.108,0.063-0.201,0.057-0.28-0.02
				c-0.079-0.075-0.118-0.195-0.118-0.363v-1.609c0-0.166,0.037-0.342,0.11-0.529c0.074-0.186,0.145-0.352,0.214-0.498l2.063-4.523
				l-4.065,2.347c-0.108,0.063-0.201,0.056-0.28-0.021c-0.078-0.075-0.118-0.195-0.118-0.361v-1.611c0-0.166,0.04-0.332,0.118-0.498
				c0.079-0.167,0.172-0.281,0.28-0.344L213.949,68.072z"/>
			<path style="fill:#FAFAFA;" d="M217.645,66.549c0-0.166,0.04-0.333,0.118-0.499c0.079-0.166,0.172-0.281,0.28-0.344l5.539-3.197
				c0.107-0.063,0.201-0.056,0.279,0.02c0.079,0.076,0.118,0.197,0.118,0.363v1.61c0,0.166-0.039,0.332-0.118,0.499
				c-0.078,0.166-0.172,0.28-0.279,0.343l-4.141,2.39l-0.161,2.997c0.265-0.319,0.527-0.569,0.788-0.75
				c0.26-0.181,0.474-0.319,0.641-0.415c0.55-0.318,1.061-0.5,1.532-0.545c0.471-0.045,0.879,0.057,1.223,0.303
				c0.344,0.248,0.613,0.641,0.811,1.178c0.196,0.537,0.294,1.229,0.294,2.074c0,0.969-0.101,1.854-0.302,2.658
				c-0.201,0.805-0.477,1.531-0.825,2.178c-0.349,0.647-0.759,1.209-1.229,1.686c-0.472,0.477-0.973,0.867-1.503,1.174
				c-0.678,0.391-1.26,0.605-1.746,0.645c-0.485,0.039-0.889-0.058-1.208-0.289c-0.318-0.231-0.559-0.568-0.721-1.013
				c-0.163-0.442-0.254-0.953-0.273-1.532c-0.01-0.176,0.027-0.344,0.11-0.506c0.083-0.161,0.18-0.273,0.288-0.336l1.192-0.688
				c0.098-0.057,0.186-0.06,0.266-0.006c0.078,0.054,0.133,0.153,0.162,0.303c0.059,0.315,0.151,0.544,0.28,0.688
				c0.127,0.146,0.274,0.235,0.441,0.268c0.167,0.032,0.354,0.012,0.56-0.063c0.207-0.074,0.422-0.176,0.648-0.307
				c0.56-0.322,1.011-0.818,1.355-1.485c0.343-0.666,0.515-1.409,0.515-2.226c0-0.68-0.172-1.147-0.515-1.403
				c-0.345-0.255-0.796-0.228-1.355,0.079c-0.295,0.17-0.528,0.34-0.7,0.507c-0.171,0.167-0.312,0.327-0.419,0.48
				c-0.108,0.153-0.206,0.289-0.295,0.409c-0.088,0.117-0.201,0.217-0.339,0.297l-1.355,0.782c-0.108,0.063-0.201,0.056-0.28-0.021
				c-0.078-0.074-0.117-0.195-0.117-0.362L217.645,66.549z"/>
			<path style="fill:#FAFAFA;" d="M228.517,72.09c0.108-0.063,0.201-0.057,0.279,0.02c0.079,0.076,0.118,0.197,0.118,0.363v2.223
				c0,0.166-0.039,0.332-0.118,0.498c-0.078,0.166-0.171,0.281-0.279,0.344l-1.37,0.791c-0.108,0.063-0.201,0.055-0.28-0.021
				c-0.078-0.075-0.117-0.196-0.117-0.362v-2.223c0-0.166,0.039-0.332,0.117-0.499c0.079-0.167,0.172-0.28,0.28-0.343L228.517,72.09
				z"/>
			<path style="fill:#FAFAFA;" d="M233.098,69.444c0.108-0.063,0.201-0.056,0.28,0.021c0.078,0.075,0.117,0.196,0.117,0.362v2.223
				c0,0.166-0.039,0.332-0.117,0.499c-0.079,0.166-0.172,0.28-0.28,0.343l-1.37,0.791c-0.108,0.063-0.201,0.056-0.28-0.021
				c-0.078-0.075-0.117-0.196-0.117-0.362v-2.223c0-0.166,0.039-0.332,0.117-0.499c0.079-0.166,0.172-0.28,0.28-0.343
				L233.098,69.444z"/>
			<path style="fill:#FAFAFA;" d="M237.679,66.799c0.108-0.063,0.201-0.055,0.28,0.021c0.078,0.075,0.117,0.196,0.117,0.362v2.223
				c0,0.166-0.039,0.332-0.117,0.499c-0.079,0.167-0.172,0.28-0.28,0.343l-1.37,0.791c-0.108,0.063-0.201,0.057-0.279-0.02
				c-0.079-0.076-0.118-0.197-0.118-0.363v-2.223c0-0.166,0.039-0.332,0.118-0.498c0.078-0.166,0.171-0.281,0.279-0.344
				L237.679,66.799z"/>
			<path style="fill:#FAFAFA;" d="M247.505,48.698c0.108-0.063,0.201-0.056,0.28,0.021c0.078,0.075,0.117,0.196,0.117,0.362v1.61
				c0,0.166-0.036,0.342-0.11,0.528c-0.074,0.187-0.146,0.353-0.214,0.497l-2.15,4.735c0.441-0.164,0.842-0.229,1.201-0.194
				c0.357,0.035,0.664,0.172,0.92,0.41c0.255,0.237,0.451,0.582,0.59,1.031c0.137,0.451,0.206,1,0.206,1.65
				c0,0.785-0.101,1.543-0.302,2.271c-0.201,0.729-0.481,1.408-0.84,2.039c-0.358,0.631-0.781,1.199-1.268,1.707
				c-0.486,0.507-1.014,0.925-1.584,1.254c-0.688,0.396-1.283,0.617-1.789,0.659c-0.506,0.043-0.928-0.034-1.267-0.232
				c-0.339-0.197-0.597-0.495-0.773-0.892c-0.177-0.396-0.28-0.828-0.309-1.296c-0.01-0.176,0.027-0.345,0.11-0.507
				c0.083-0.16,0.179-0.272,0.287-0.335l1.164-0.672c0.098-0.057,0.179-0.054,0.243,0.007c0.063,0.063,0.13,0.164,0.199,0.305
				c0.058,0.148,0.137,0.273,0.234,0.375c0.099,0.102,0.229,0.17,0.392,0.205c0.162,0.035,0.365,0.02,0.611-0.047
				c0.245-0.065,0.544-0.201,0.897-0.405c0.6-0.347,1.084-0.81,1.451-1.394c0.369-0.583,0.553-1.215,0.553-1.895
				c0-0.682-0.184-1.063-0.553-1.145c-0.367-0.082-0.852,0.049-1.451,0.396l-1.222,0.706c-0.108,0.063-0.201,0.057-0.28-0.021
				c-0.078-0.075-0.118-0.195-0.118-0.362v-1.61c0-0.166,0.037-0.342,0.111-0.528c0.073-0.187,0.145-0.353,0.214-0.498l2.062-4.524
				l-4.066,2.347c-0.108,0.063-0.201,0.057-0.28-0.02c-0.078-0.076-0.118-0.196-0.118-0.362v-1.61c0-0.166,0.04-0.332,0.118-0.499
				c0.079-0.167,0.172-0.28,0.28-0.343L247.505,48.698z"/>
			<path style="fill:#FAFAFA;" d="M250.392,57.532c0.01-0.883,0.113-1.684,0.309-2.401c0.196-0.718,0.423-1.43,0.678-2.137
				l2.8-7.695c0.039-0.113,0.09-0.241,0.154-0.384c0.063-0.144,0.164-0.254,0.302-0.333l1.325-0.766
				c0.108-0.063,0.202-0.056,0.28,0.02c0.079,0.076,0.118,0.197,0.118,0.363c0,0.076-0.007,0.14-0.021,0.193
				c-0.016,0.055-0.032,0.102-0.052,0.144l-1.827,5.092c0.58-0.319,1.112-0.483,1.599-0.492c0.485-0.008,0.903,0.129,1.252,0.411
				c0.349,0.283,0.619,0.709,0.811,1.279c0.191,0.568,0.287,1.263,0.287,2.079c0,0.832-0.098,1.648-0.294,2.449
				c-0.197,0.802-0.473,1.55-0.826,2.245c-0.353,0.696-0.775,1.322-1.267,1.877c-0.491,0.557-1.031,1.004-1.62,1.344
				c-0.59,0.34-1.129,0.516-1.621,0.527c-0.491,0.012-0.913-0.126-1.267-0.414c-0.354-0.287-0.628-0.717-0.824-1.293
				C250.49,59.067,250.392,58.364,250.392,57.532z M256.402,54.062c0-0.771-0.174-1.318-0.522-1.639
				c-0.35-0.319-0.842-0.295-1.48,0.073c-0.639,0.368-1.132,0.914-1.48,1.637c-0.349,0.724-0.523,1.47-0.523,2.241
				c0,0.771,0.175,1.324,0.523,1.66c0.349,0.335,0.842,0.318,1.48-0.05c0.639-0.368,1.131-0.922,1.48-1.659
				C256.228,55.588,256.402,54.832,256.402,54.062z"/>
			<path style="fill:#FAFAFA;" d="M262.221,52.631c0.107-0.063,0.201-0.057,0.279,0.02c0.079,0.076,0.118,0.197,0.118,0.363v2.223
				c0,0.166-0.039,0.332-0.118,0.498c-0.078,0.166-0.172,0.281-0.279,0.344l-1.37,0.791c-0.108,0.063-0.201,0.055-0.28-0.021
				c-0.079-0.075-0.117-0.196-0.117-0.362v-2.223c0-0.166,0.038-0.332,0.117-0.499c0.079-0.167,0.172-0.28,0.28-0.343
				L262.221,52.631z"/>
			<path style="fill:#FAFAFA;" d="M266.802,49.985c0.108-0.063,0.201-0.056,0.28,0.021c0.078,0.075,0.117,0.196,0.117,0.362v2.223
				c0,0.166-0.039,0.332-0.117,0.499c-0.079,0.166-0.172,0.28-0.28,0.343l-1.37,0.791c-0.108,0.063-0.201,0.056-0.28-0.021
				c-0.078-0.075-0.117-0.196-0.117-0.362v-2.223c0-0.166,0.039-0.332,0.117-0.499c0.079-0.166,0.172-0.28,0.28-0.343
				L266.802,49.985z"/>
			<path style="fill:#FAFAFA;" d="M271.384,47.34c0.108-0.063,0.201-0.055,0.28,0.021c0.078,0.075,0.117,0.196,0.117,0.362v2.223
				c0,0.166-0.039,0.332-0.117,0.499c-0.079,0.167-0.172,0.28-0.28,0.343l-1.37,0.791c-0.108,0.063-0.201,0.057-0.279-0.02
				c-0.079-0.076-0.118-0.197-0.118-0.363v-2.223c0-0.166,0.039-0.332,0.118-0.498c0.078-0.166,0.171-0.281,0.279-0.344
				L271.384,47.34z"/>
		</g>
	</g>
</g>
<g id="Chair">
	<g id="Chair_2_">
		<g id="XMLID_14889_">
			<g id="XMLID_14914_">
				<path id="XMLID_14915_" style="fill:#455A64;" d="M331.384,373.175c0.82,0,1.484-0.664,1.484-1.484v-95.397
					c0-0.82-0.664-1.484-1.484-1.484c-0.82,0-1.484,0.664-1.484,1.484v95.397C329.9,372.511,330.564,373.175,331.384,373.175z"/>
			</g>
			<g id="XMLID_14912_">
				<path id="XMLID_14913_" style="fill:#455A64;" d="M272.361,338.452c0.591,0,1.149-0.355,1.379-0.939l29.253-74.041
					c0.301-0.762-0.073-1.625-0.835-1.924c-0.759-0.305-1.623,0.071-1.924,0.835l-29.253,74.041
					c-0.301,0.762,0.072,1.624,0.835,1.924C271.995,338.418,272.18,338.452,272.361,338.452z"/>
			</g>
			<g id="XMLID_14910_">
				<path id="XMLID_14911_" style="fill:#455A64;" d="M275.875,329.558c0.394,0,0.787-0.157,1.078-0.465l54.432-57.6l54.334,57.357
					c0.564,0.597,1.503,0.622,2.097,0.057c0.595-0.564,0.62-1.503,0.056-2.097l-55.412-58.495c-0.28-0.296-0.669-0.464-1.077-0.464
					h-0.001c-0.407,0-0.797,0.168-1.077,0.465l-55.509,58.74c-0.564,0.596-0.536,1.535,0.059,2.097
					C275.143,329.423,275.509,329.558,275.875,329.558z"/>
			</g>
			<g id="XMLID_14908_">
				<path id="XMLID_14909_" style="fill:#455A64;" d="M390.405,338.452c0.181,0,0.367-0.033,0.545-0.105
					c0.762-0.3,1.136-1.162,0.835-1.924l-29.253-74.041c-0.301-0.764-1.164-1.139-1.924-0.835c-0.762,0.3-1.136,1.162-0.835,1.924
					l29.253,74.041C389.256,338.096,389.814,338.452,390.405,338.452z"/>
			</g>
			<g id="XMLID_14902_">
				<path id="XMLID_14907_" style="fill:#27DEBF;" d="M274.378,327.271l-3.867,10.206c-0.023,0.087-0.035,0.174-0.035,0.261
					c-0.006,0.058-0.006,0.121,0,0.185c0.035,0.209,0.299,0.475,0.583,0.644c0.649,0.377,1.704,0.377,2.354,0
					c0.238-0.139,0.389-0.307,0.458-0.481c0-0.006,0-0.012,0.006-0.017l0.029-0.139l3.586-9.568L274.378,327.271z"/>
			</g>
			<g id="XMLID_14892_">
				<path id="XMLID_14896_" style="fill:#27DEBF;" d="M388.389,327.271l3.867,10.206c0.023,0.087,0.035,0.174,0.035,0.261
					c0.006,0.058,0.006,0.121,0,0.185c-0.035,0.209-0.299,0.475-0.583,0.644c-0.649,0.377-1.704,0.377-2.354,0
					c-0.238-0.139-0.388-0.307-0.458-0.481c0-0.006,0-0.012-0.006-0.017l-0.029-0.139l-3.586-9.568L388.389,327.271z"/>
			</g>
			<g id="XMLID_14890_">
				<path id="XMLID_14891_" style="fill:#27DEBF;" d="M329.673,364.305l0,8.443c0,0.253,0.167,0.506,0.501,0.698
					c0.668,0.386,1.751,0.386,2.419,0c0.334-0.193,0.501-0.446,0.501-0.698v-8.443C331.954,363.733,330.813,363.733,329.673,364.305
					z"/>
			</g>
		</g>
		<g id="XMLID_14882_">
			<path id="XMLID_14888_" style="fill:#27DEBF;" d="M265.042,262.467c0.005-2.656,2.331-5.487,7.253-8.68
				c9.095-5.9,35.569-20.679,48.294-27.73c0.026-0.095,0.107-0.104,0.107-0.104c9.792-5.943,12.77-31.308,19.548-52.815
				c2.31-7.329,5.139-11.479,8.493-13.426c0.796-0.462,3.73-2.079,4.386-2.472c6.649-3.985,15.378,0.802,26.25,6.753
				c10.016,5.481,17.839,12.498,19.413,31.117c0.958,11.337,0.046,33.002-2.256,49.42c0.001-0.002,0.006-0.014,0.006-0.014
				c-3.334,27.43-7.426,27.477-13.367,32.067c-10.225,7.899-33.253,19.004-42.956,22.821c-17.604,6.924-31.988-3.752-42.709-9.047
				c-10.721-5.295-23.9-13.555-28.412-16.832c-2.684-1.949-4.072-3.919-4.044-5.996C265.059,266.703,265.04,263.327,265.042,262.467
				z"/>
			<path id="XMLID_1466_" style="opacity:0.3;" d="M265.042,262.467c0.005-2.656,2.331-5.487,7.253-8.68
				c9.095-5.9,35.569-20.679,48.294-27.73c0.026-0.095,0.107-0.104,0.107-0.104c9.792-5.943,12.77-31.308,19.548-52.815
				c2.31-7.329,5.139-11.479,8.493-13.426c0.796-0.462,3.73-2.079,4.386-2.472c6.649-3.985,15.378,0.802,26.25,6.753
				c10.016,5.481,17.839,12.498,19.413,31.117c0.958,11.337,0.046,33.002-2.256,49.42c0.001-0.002,0.006-0.014,0.006-0.014
				c-3.334,27.43-7.426,27.477-13.367,32.067c-10.225,7.899-33.253,19.004-42.956,22.821c-17.604,6.924-31.988-3.752-42.709-9.047
				c-10.721-5.295-23.9-13.555-28.412-16.832c-2.684-1.949-4.072-3.919-4.044-5.996C265.059,266.703,265.04,263.327,265.042,262.467
				z"/>
			<g id="XMLID_14886_">
				<path id="XMLID_14887_" style="fill:#27DEBF;" d="M297.503,285.252c-10.721-5.295-23.9-13.555-28.412-16.832
					c-6.1-4.429-5.539-8.962,3.204-14.633c12.146-7.879,55.284-31.592,55.284-31.592s62.594,36.94,59.901,43.761
					c-2.693,6.821-35.062,23.542-47.267,28.343C322.609,301.224,308.224,290.547,297.503,285.252z"/>
			</g>
			<path id="XMLID_14885_" style="fill:#27DEBF;" d="M349.126,159.487c6.589-3.458,15.151,1.243,25.743,7.046
				c6.785,3.72,12.566,8.126,16.078,16.373l4.472-2.585c-3.512-8.214-9.283-12.62-16.046-16.329
				c-10.875-5.956-19.601-10.734-26.255-6.752C352.54,157.578,350.228,158.865,349.126,159.487z"/>
			<path id="XMLID_1465_" style="opacity:0.5;fill:#FFFFFF;" d="M349.126,159.487c6.589-3.458,15.151,1.243,25.743,7.046
				c6.785,3.72,12.566,8.126,16.078,16.373l4.472-2.585c-3.512-8.214-9.283-12.62-16.046-16.329
				c-10.875-5.956-19.601-10.734-26.255-6.752C352.54,157.578,350.228,158.865,349.126,159.487z"/>
			<g id="XMLID_14883_">
				<path id="XMLID_14884_" style="fill:#27DEBF;" d="M374.872,166.537c-16.272-8.906-27.748-15.234-34.629,6.601
					c-6.778,21.507-9.755,46.872-19.548,52.815c0,0,6.389,2.101,29.156,13.281c9.35,4.591,15.491,9.217,24.246,14.725
					c12.879,8.103,11.9,14.124,11.9,14.124c6.398-5.305,9.862-51.809,8.288-70.428C392.711,179.036,384.888,172.019,374.872,166.537
					z"/>
			</g>
			<g id="XMLID_1129_" style="opacity:0.1;">
				<path id="XMLID_1464_" d="M374.872,166.537c-16.272-8.906-27.748-15.234-34.629,6.601c-6.778,21.507-9.755,46.872-19.548,52.815
					c0,0,6.389,2.101,29.156,13.281c9.35,4.591,15.491,9.217,24.246,14.725c12.879,8.103,11.9,14.124,11.9,14.124
					c6.398-5.305,9.862-51.809,8.288-70.428C392.711,179.036,384.888,172.019,374.872,166.537z"/>
			</g>
		</g>
	</g>
</g>
<g id="Character">
	<g id="Character_1_">
		<g id="Boy">
			<g id="XMLID_4622_">
				<path id="XMLID_4624_" style="fill:#B16668;" d="M158.033,106.529c8.908,0.417,14.659,1.987,19.321,7.48
					c4.552,5.363,28.12,38.84,28.12,38.84s-4.123,11.557-13.144,10.574L174.621,142L158.033,106.529z"/>
				<path style="fill:#37474F;" d="M158.738,106.341c0,0,9.487,0.152,13.814,3.182c4.328,3.03,5.068,3.669,11.435,12.507
					s12.104,16.77,12.104,16.77s-4.51,8.41-15.414,11.726l-18.755-22.607L158.738,106.341z"/>
			</g>
			<g id="Botom">
				<g id="XMLID_2222_">
					<g id="XMLID_2224_">
						<polygon id="XMLID_1117_" style="fill:#B16668;" points="112.953,372.268 127.737,372.268 127.44,349.621 112.953,351.887 
													"/>
						<polygon id="XMLID_1988_" style="fill:#B16668;" points="163.003,357.086 177.021,357.568 176.469,333.457 160.971,332.546 
													"/>
						<g>
							<path id="XMLID_1987_" style="fill:#263238;" d="M143.274,396.068c0.427,0.401,0.298,3.145-0.173,3.885
								c-0.505,0.793-5.404,3.265-10.647,3.641c-5.009,0.359-9.483-0.317-12.424-2.184c-2.941-1.867-4.365-3.927-4.642-6.781
								c-0.277-2.854,0.041-5.607-1.32-7.804c-1.256-2.028-3.258-4.314-3.694-5.414c-0.948-2.392-0.034-5.812-0.034-5.812
								L143.274,396.068z"/>
							<path id="XMLID_1986_" style="fill:#455A64;" d="M129.563,371.154c0.035,1.109,0.231,2.119,0.578,3.177
								c0.726,2.213,1.83,4.296,3.068,6.277c0.638,1.02,1.312,2.022,2.089,2.947c1.515,1.803,3.397,3.283,5.002,5.013
								c1.604,1.729,2.967,3.827,3.093,6.15c0.213,3.929-6.051,5.264-9.334,5.849c-3.506,0.624-7.248,0.437-10.67-0.536
								c-3.807-1.082-6.555-4.031-7.186-7.83c-0.182-1.091-0.115-2.206-0.244-3.304c-0.294-2.504-1.591-4.792-3.056-6.874
								c-0.85-1.208-1.774-2.387-2.344-3.741c-1.025-2.433-0.203-5.169,0.452-7.591c0.566-2.092,1.206-4.46,1.943-4.263
								c0.009,1.084-0.004,1.197,0.775,1.933c0.984,0.93,1.027,2.329,2.067,3.151c-0.487-1.274-0.519-1.815-0.73-2.795
								c-0.063-0.293,0.016-0.887,0.221-1.111c0.276-0.301,0.746-0.489,1.207-0.645c1.546-0.523,3.148-0.886,4.771-1.086
								c1.483-0.183,5.186-0.363,6.656-0.034c0.452,0.101,0.892,0.317,1.171,0.677c0.293,0.379,0.348,0.715,0.418,1.343
								C129.579,368.489,129.53,370.11,129.563,371.154z"/>
							<path id="XMLID_1984_" style="fill:#F5F5F5;" d="M133.738,381.433c-1.463-1.096-6.742-1.111-8.534-0.919
								c-2.245,0.241-4.063,1.028-5.095,1.788c-0.457,0.337-1.098,0.279-1.5-0.118l0,0c-0.484-0.478-0.44-1.264,0.111-1.67
								c1.094-0.805,3.074-1.937,5.734-2.125c4.411-0.311,7.706,0.445,7.706,0.445S134.171,380.13,133.738,381.433z"/>
							<path id="XMLID_1983_" style="fill:#F5F5F5;" d="M137.103,385.458c-1.84-1.087-7.446-0.931-9.238-0.739
								c-2.245,0.241-3.923,1.124-4.955,1.885c-0.458,0.337-1.098,0.279-1.501-0.119l0,0c-0.484-0.478-0.44-1.264,0.111-1.67
								c1.094-0.805,5.197-2.106,7.857-2.293c4.411-0.311,5.561,0.59,5.561,0.59S136.798,383.833,137.103,385.458z"/>
							<path id="XMLID_1982_" style="fill:#F5F5F5;" d="M122.697,374.167c3.048-0.314,6.341,0.026,7.546,0.465
								c0.778,0.435,1.289,1.663,0.789,1.975c-0.982-0.545-4.75-0.771-6.916-0.675c-1.453,0.065-3.285,0.653-4.77,1.311
								c-0.378,0.167-0.824,0.402-1.215,0.619c-0.528,0.292-1.199,0.085-1.452-0.451l0,0c-0.215-0.454-0.055-0.996,0.382-1.26
								C118.127,375.505,120.233,374.422,122.697,374.167z"/>
						</g>
						<g>
							<path id="XMLID_1981_" style="fill:#263238;" d="M204.54,373.402c0.412,0.86,0.292,2.474-0.196,3.497
								c-0.488,1.023-5.833,4.037-13.043,3.551c-7.209-0.486-12.16-3.391-14.909-5.211c-2.749-1.82-5.611-2.16-9.181-2.364
								c-3.57-0.204-8.258-1.984-9.041-3.654c-0.783-1.67,0.118-4.545,0.118-4.545L204.54,373.402z"/>
							<path id="XMLID_1980_" style="fill:#455A64;" d="M175.445,350.9c0.188-0.04,0.378-0.08,0.57-0.118
								c0.314-0.063,0.64-0.125,0.951-0.051c0.354,0.084,0.644,0.333,0.89,0.6c0.775,0.843,1.243,1.915,1.842,2.891
								c1.511,2.466,4.684,4.507,8.148,6.369c2.355,1.266,4.663,2.248,7.095,3.342c2.48,1.116,5.773,1.797,7.714,3.105
								c2.829,1.907,3.195,6.698-0.029,8.59c-2.781,1.632-10.097,3.401-17.771,1.227c-4.18-1.184-8.82-5.651-14.307-6.08
								c-3.489-0.273-10.087-1.253-12.333-3.903c-0.83-1.175,0.278-4.9,1.189-8.116c0.993-3.51,1.938-8.987,3.102-8.678
								c0.048,0.69,0.155,0.842,0.608,1.311c0.43,0.445,1.01,0.728,1.478,1.129c0.863,0.737,1.393,1.778,1.93,2.776
								c0.233,0.432,0.509,0.893,0.991,1.074c0.588,0.221,1.028-0.15,1.543-0.387c0.647-0.297,1.402-0.351,2.085-0.149
								c-0.067-0.695-0.19-1.384-0.368-2.06c-0.057-0.218-0.12-0.45-0.051-0.664c0.07-0.217,0.26-0.371,0.447-0.502
								C172.513,351.665,173.903,351.233,175.445,350.9z"/>
							<path id="XMLID_1968_" style="fill:#F5F5F5;" d="M184.588,358.695c0,0-0.501-1.339-2.576-1.725
								c-1.588-0.296-4.392,0.875-6.135,2.311c-0.713,0.588-0.621,1.704,0.188,2.151l0,0c0.481,0.266,1.071,0.196,1.486-0.165
								C178.694,360.272,181.257,358.465,184.588,358.695z"/>
							<path id="XMLID_1965_" style="fill:#F5F5F5;" d="M189.509,361.451c0,0-1.026-1.604-3.053-1.573c0,0-4.146,0.119-6.712,2.511
								c-0.654,0.61-0.609,1.649,0.175,2.079v0c0.466,0.256,1.035,0.188,1.432-0.166C182.507,363.27,184.824,361.1,189.509,361.451z
								"/>
							<path id="XMLID_1911_" style="fill:#F5F5F5;" d="M194.941,363.934c0,0-1.143-1.451-3.171-1.421c0,0-3.863,0.144-6.428,2.536
								c-0.654,0.61-0.609,1.649,0.175,2.079l0,0c0.466,0.256,1.035,0.188,1.432-0.166
								C188.105,365.931,190.257,363.584,194.941,363.934z"/>
						</g>
						<path id="XMLID_1116_" style="fill:#27DEBF;" d="M115.195,191.457c-0.907,27.52-0.971,83.818-0.971,83.818
							c-0.29,3.424-0.586,9.51-0.842,21.842c-0.371,17.883-0.43,63.827-0.43,63.827s7.737,2.193,15.561-1.067
							c0,0,10.906-62.061,13.138-79.763c1.948-15.448,5.254-57.416,5.254-57.416l6.754,50.433c0,0-1.215,13.146-0.462,23.733
							c0.582,8.188,8.91,50.288,8.91,50.288s6.207,2.879,14.728,0c0,0,0.127-66.513,0.271-74.026
							c0.164-8.565-0.774-96.413-0.774-96.413L115.195,191.457z"/>
						<path id="XMLID_1124_" style="opacity:0.3;" d="M115.195,191.457c-0.907,27.52-0.971,83.818-0.971,83.818
							c-0.29,3.424-0.586,9.51-0.842,21.842c-0.371,17.883-0.43,63.827-0.43,63.827s7.737,2.193,15.561-1.067
							c0,0,10.906-62.061,13.138-79.763c1.948-15.448,5.254-57.416,5.254-57.416l6.754,50.433c0,0-1.215,13.146-0.462,23.733
							c0.582,8.188,8.91,50.288,8.91,50.288s6.207,2.879,14.728,0c0,0,0.127-66.513,0.271-74.026
							c0.164-8.565-0.774-96.413-0.774-96.413L115.195,191.457z"/>
						<path id="XMLID_2225_" style="opacity:0.2;" d="M146.906,222.698c0,0,9.958-2.805,17.35-9.948c0,0-3.348,6.268-13.303,12.102
							l2.129,43.964L146.906,222.698z"/>
					</g>
				</g>
			</g>
			<g id="Chest">
				<path id="XMLID_2139_" style="fill:#455A64;" d="M139.637,105.362c-5.578,0.541-13.382,0.605-18.919,1.166
					c-3.836,1.578-11.215,8.011-10.666,12.604c2.052,17.146,5.632,45.465,5.632,45.465l-1.097,29.569
					c7.671,7.654,43.888,10.636,62.381-1.613c0,0-0.598-53.513-1.868-62.536c-2.282-16.221-4.281-22.241-12.65-23.677
					C154.082,104.905,139.637,105.362,139.637,105.362z"/>
				<g id="XMLID_2122_">
					<g id="XMLID_2130_">
						
							<ellipse id="XMLID_2138_" transform="matrix(0.3598 -0.933 0.933 0.3598 38.7686 186.8496)" style="fill:#263238;" cx="155.535" cy="65.176" rx="17.284" ry="17.284"/>
						<path id="XMLID_2136_" style="fill:#263238;" d="M125.551,77.203c0,0,2.685,13.183,3.79,15.354
							c1.104,2.172,3.42,2.807,3.42,2.807l-0.115-9.258L125.551,77.203z"/>
						<path id="XMLID_2135_" style="fill:#263238;" d="M129.231,58.383c0,0-3.012-0.543-5.384,1.84
							c-2.326,2.337-1.103,9.727,1.704,16.979l5.27,0.652L129.231,58.383z"/>
						<path id="XMLID_2134_" style="fill:#B16668;" d="M132.404,77.873c-1.063,0.623-2.554-1.423-3.847-2.799
							c-1.293-1.376-5.535-3.279-7.699,1.179c-2.205,4.543,1.783,10.606,5.126,11.688c5.762,1.864,6.662-1.835,6.662-1.835
							l0.239,21.484l0,0c7.104,9.273,27.046,8.67,18.824-1.024l0.039-6.343c0,0,5.228,0.84,7.786,0.468
							c4.255-0.62,6.958-3.949,8.287-8.537c2.135-7.37,2.973-13.328,1.344-27.873c-1.786-15.942-20.307-16.27-30.365-10.062
							C128.742,60.426,132.404,77.873,132.404,77.873z"/>
						<path id="XMLID_2133_" style="fill:#263238;" d="M132.388,79.653c-0.532,0.005-2.526-3.369-3.832-4.579
							c-1.81-1.676,0.675-16.69,0.675-16.69s-2.22-4.269,1.328-8.106c2.524-2.729,6.04-6.058,17.37-4.618
							c8.077,1.027,16.855,3.626,23.995,0.195c1.026,4.433,0.123,9.36-4.328,12.818c0,0-2.588,1.637-9.364,2.401
							c-6.776,0.765-17.309-0.31-18.749-0.52c-1.96-0.286-2.396,1.613-3.5,6.8C135.015,71.909,134.176,79.634,132.388,79.653z"/>
						<path id="XMLID_2132_" style="fill:#263238;" d="M129.231,59.553l-6.366-3.489c0.924-1.825,3.098-2.523,4.856-1.559
							C129.479,55.468,130.155,57.728,129.231,59.553z"/>
						<path id="XMLID_1115_" style="fill:#9A4A4D;" d="M151.748,100.222c0,0-9.469-1.994-12.769-3.786
							c-2.209-1.199-4.019-3.26-4.544-4.576c0,0,0.597,2.82,2.557,5.372c2.398,3.121,14.734,5.513,14.734,5.513L151.748,100.222z"/>
					</g>
					<g id="XMLID_2123_">
						<path id="XMLID_2129_" style="fill:#263238;" d="M153.409,77.225c-0.01,1.091-0.869,1.965-1.918,1.953
							c-1.05-0.012-1.893-0.906-1.883-1.997c0.009-1.091,0.868-1.965,1.918-1.953C152.575,75.24,153.419,76.134,153.409,77.225z"/>
						<path id="XMLID_1114_" style="fill:#263238;" d="M152.26,68.377l-3.966,2.417c-0.649-1.141-0.288-2.608,0.807-3.275
							C150.197,66.852,151.611,67.236,152.26,68.377z"/>
						<path id="XMLID_2126_" style="fill:#263238;" d="M168.593,72.94l-3.588-3.006c0.799-1.03,2.25-1.192,3.241-0.362
							C169.237,70.402,169.392,71.91,168.593,72.94z"/>
						<path id="XMLID_2125_" style="fill:#263238;" d="M167.054,77.224c-0.009,1.046-0.832,1.884-1.839,1.872
							c-1.006-0.012-1.814-0.868-1.805-1.914c0.009-1.046,0.832-1.884,1.839-1.872C166.255,75.321,167.063,76.178,167.054,77.224z"
							/>
						<polygon id="XMLID_1113_" style="fill:#9A4A4D;" points="158.341,74.761 157.631,86.188 163.796,84.861 						"/>
						<path style="fill:#9A4A4D;" d="M154.083,91.209c0,1.006-0.816,1.822-1.822,1.822c-1.006,0-1.822-0.816-1.822-1.822
							c0-1.006,0.816-1.822,1.822-1.822C153.267,89.387,154.083,90.203,154.083,91.209z"/>
					</g>
				</g>
			</g>
			<g>
				<path style="fill:#B16668;" d="M98.394,85.194c4.246-4.57,7.181-8.052,11.027-11.947c2.184-2.212,3.599-3.805,5.717-6.089
					c1.457-1.571,2.359-2.931,3.83-3.31c1.655-0.425,3.314-1.44,4.452-2.406c0.813-0.691,1.506-1.509,2.229-2.294
					c2.429-2.637,5.239-4.921,8.315-6.763c3.232-1.936,6.74-3.3,10.039-5.121c1.969-1.087,4.159-3.006,2.142-5.231
					c-0.625-0.689-1.47-1.134-2.354-1.422c-5.343-1.743-10.319-0.311-15.839,0.465c-2.267,0.319-4.506,0.826-6.689,1.516
					c-1.105,0.349-2.212,0.739-3.167,1.395c-1.488,1.022-2.482,2.596-3.534,4.063c-2.826,3.939-7.61,7.629-11.427,10.523
					c-4.478,3.394-8.86,7.045-13.442,10.255c-4.653,3.259-9.219,6.66-13.494,10.403c-3.536,3.097-3.174,5.146-2.822,6.122
					c2.017,5.589,4.707,7.802,7.811,11.463c6.479,7.638,34.62,36.388,34.62,36.388l4.377-8.072
					c4.571-8.431,2.674-18.904-4.561-25.198C109.732,94.809,103.363,89.264,98.394,85.194z"/>
				<path id="XMLID_1119_" style="fill:#37474F;" d="M123.991,105.966c-8.054-6.239-22.144-18.276-22.144-18.276
					s-0.553,14.154-10.783,21.069c0,0,18.708,20.014,23.614,24.808c4.567-1.04,8.469-4.676,9.783-11.742
					C126.682,109.88,123.991,105.966,123.991,105.966z"/>
				<path style="fill:#9A4A4D;" d="M98.394,85.194c0,0-4.027,4.337-10.227,5.543c0,0,4.633,1.381,12.09-4.003L98.394,85.194z"/>
			</g>
		</g>
		<g id="Lista">
			<g id="Paper">
				<path style="fill:#F0F0F0;" d="M218.271,385.611c-1.95-1.13-3.7-1.35-4.95-0.63c-1.4,0.81-2.21,2.83-2.21,5.53v19.55
					c0,5.8-2.05,10.21-5.77,12.45l22.08-12.73v-7.54C227.421,396.091,223.231,388.471,218.271,385.611z"/>
				<path style="fill:#F0F0F0;" d="M252.791,424.301c-1.42-0.82-2.68-1-3.55-0.5c-1,0.57-1.57,2.06-1.57,4.08v12.83
					c0,3.49-1.3,6.24-3.57,7.55l15.82-9.12v-1.88C259.921,432.471,256.661,426.531,252.791,424.301z"/>
				<path style="opacity:0.15;" d="M218.271,385.611c-1.95-1.13-3.7-1.35-4.95-0.63c-1.4,0.81-2.21,2.83-2.21,5.53v19.55
					c0,5.8-2.05,10.21-5.77,12.45l22.08-12.73v-7.54C227.421,396.091,223.231,388.471,218.271,385.611z"/>
				<path style="opacity:0.15;" d="M252.791,424.301c-1.42-0.82-2.68-1-3.55-0.5c-1,0.57-1.57,2.06-1.57,4.08v12.83
					c0,3.49-1.3,6.24-3.57,7.55l15.82-9.12v-1.88C259.921,432.471,256.661,426.531,252.791,424.301z"/>
				<path style="fill:#F0F0F0;" d="M330.981,421.401l-13.29,7.67l-1.73,1l-35.79,20.64v9.38c0,3.18-1.15,5.64-3.25,6.92l52.68-30.38
					c2.18-1.26,3.38-3.75,3.38-7v-9.38L330.981,421.401z"/>
				<polygon style="fill:#FAFAFA;" points="330.981,420.251 317.181,428.211 315.451,429.211 278.171,450.711 280.171,450.711 
					315.961,430.071 317.691,429.071 330.981,421.401 332.981,420.251 				"/>
				<path style="fill:#F0F0F0;" d="M160.371,190.401v20.64c0,4.14-2.73,5.92-6.1,3.98c-3.36-1.94-6.09-6.67-6.09-10.55v-7.04
					L160.371,190.401z"/>
				<path style="fill:#E6E6E6;" d="M165.461,172.191c-0.9-0.52-1.69-0.65-2.17-0.38c-0.57,0.33-0.92,1.34-0.92,2.63v14.81v21.79
					c0,2.72-1.02,4.9-2.79,6.01l10.97-6.33v-26.19v-1.16v-1.89C170.551,178.041,168.221,173.781,165.461,172.191z"/>
				<polygon style="fill:#FAFAFA;" points="160.371,189.251 160.371,190.401 148.181,197.431 146.181,197.431 				"/>
				<path style="fill:#FAFAFA;" d="M314.731,419.631v-12.83c0-5.52-3.64-12.1-8.13-14.69c-2.09-1.21-4-1.34-5.44-0.56l-0.31,0.18
					l-18.53,10.69l-1.87,1.07l-31.99,18.46c1.43-0.71,3.29-0.56,5.33,0.62c4.49,2.59,8.13,9.17,8.13,14.69v0.72v12.11
					c0,5.53,3.64,12.1,8.12,14.7c4.49,2.59,8.13,0.49,8.13-4.7c0-5.18,0-9.38,0-9.38l37.28-21.5l1.73-1
					C315.671,425.521,314.731,422.441,314.731,419.631z"/>
				<path style="fill:#F5F5F5;" d="M282.231,400.871v-29.09c0-6.91-4.54-15.13-10.15-18.37c-2.61-1.5-4.99-1.66-6.79-0.71
					l-0.46,0.27l-35.35,20.38l-1.7,0.99l-15.19,8.76c1.79-0.89,4.12-0.7,6.68,0.77c5.61,3.24,10.15,11.46,10.15,18.37v6.38v22.71
					c0,5.53,3.64,12.1,8.13,14.69c4.48,2.59,8.12,0.22,8.12-5.31v-12.83c0-2.93,1.03-4.98,2.66-5.86l0.13-0.07l31.99-18.46
					l1.87-1.07C282.261,401.901,282.231,401.381,282.231,400.871z"/>
				<path style="fill:#FAFAFA;" d="M225.361,358.041v-207.02c0-4.14-2.73-9.08-6.09-11.02c-1.57-0.9-3-1-4.08-0.42l-0.24,0.14
					l-52.5,30.28c1.07-0.54,2.47-0.42,4.01,0.46c3.36,1.94,6.09,6.88,6.09,11.02v0.74v1.15v26.2v178.93c0,11.05,7.76,24.48,17.32,30
					l1.92,1.11c9.57,5.52,17.32,1.24,17.32-9.55c0-10.8,0-19.55,0-19.55c0-3.52,1.18-6.02,3.09-7.19l0.39-0.22l15.19-8.76l1.7-0.99
					C226.911,368.381,225.361,362.971,225.361,358.041z"/>
				<path style="fill:#455A64;" d="M280.171,450.711v9.38c0,3.18-1.15,5.64-3.25,6.92l-0.24,0.14c-0.92,0.5-1.93,0.75-3.01,0.75
					c-1.46,0-3.03-0.46-4.63-1.38c-5.11-2.96-9.12-10.17-9.12-16.43v-12.83c0-4.79-3.26-10.73-7.13-12.96
					c-1.42-0.82-2.68-1-3.55-0.5c-1,0.57-1.57,2.06-1.57,4.08v12.83c0,3.49-1.3,6.24-3.57,7.55c-2.15,1.24-4.84,1.06-7.55-0.51
					c-5.12-2.95-9.13-10.16-9.13-16.42v-29.09c0-6.15-4.19-13.77-9.15-16.63c-1.95-1.13-3.7-1.35-4.95-0.63
					c-1.4,0.81-2.21,2.83-2.21,5.53v19.55c0,5.8-2.05,10.21-5.77,12.45l-0.31,0.18l-0.02,0.01c-3.9,2.17-8.95,1.69-14.22-1.36
					l-1.92-1.11c-10.1-5.83-18.32-20.07-18.32-31.73v-207.02c0-3.44-2.33-7.7-5.09-9.29c-0.9-0.52-1.69-0.65-2.17-0.38
					c-0.57,0.33-0.92,1.34-0.92,2.63v36.6c0,2.72-1.02,4.9-2.79,6.01l-0.3,0.17c-1.75,0.93-3.88,0.76-6.01-0.47
					c-3.97-2.3-7.09-7.69-7.09-12.29v-7.03h2v7.04c0,3.88,2.73,8.61,6.09,10.55c3.37,1.94,6.1,0.16,6.1-3.98v-36.6
					c0-2.13,0.72-3.63,1.88-4.33l0.2-0.11c1.07-0.54,2.47-0.42,4.01,0.46c3.36,1.94,6.09,6.88,6.09,11.02v207.02
					c0,11.05,7.76,24.48,17.32,30l1.92,1.11c9.57,5.52,17.32,1.24,17.32-9.55c0-10.8,0-19.55,0-19.55c0-3.52,1.18-6.02,3.09-7.19
					l0.39-0.22c1.79-0.89,4.12-0.7,6.68,0.77c5.61,3.24,10.15,11.46,10.15,18.37v29.09c0,5.53,3.64,12.1,8.13,14.69
					c4.48,2.59,8.12,0.22,8.12-5.31v-12.83c0-2.93,1.03-4.98,2.66-5.86l0.13-0.07c1.43-0.71,3.29-0.56,5.33,0.62
					c4.49,2.59,8.13,9.17,8.13,14.69v12.83c0,5.53,3.64,12.1,8.12,14.7c4.49,2.59,8.13,0.49,8.13-4.7c0-5.18,0-9.38,0-9.38H280.171z
					"/>
				<path style="opacity:0.07;" d="M227.421,409.781v-7.54c0-6.15-4.19-13.77-9.15-16.63c-1.95-1.13-3.7-1.35-4.95-0.63
					c-1.4,0.81-2.21,2.83-2.21,5.53v1.572c0-5.359,9.275-5.178,9.275,9.798c0,4.334,0,8.384,0,11.956L227.421,409.781z"/>
				<path style="opacity:0.07;" d="M259.921,439.141v-1.88c0-4.79-3.26-10.73-7.13-12.96c-1.42-0.82-2.68-1-3.55-0.5
					c-1,0.57-1.57,2.06-1.57,4.08v6.417c0-6.417,6.97-2.914,6.97,1.857c0,1.592,0,3.798,0,6.029L259.921,439.141z"/>
				<path style="opacity:0.08;" d="M170.551,210.721v-26.19v-1.16v-1.89c0-3.44-2.33-7.7-5.09-9.29c-0.9-0.52-1.69-0.65-2.17-0.38
					c-0.57,0.33-0.92,1.34-0.92,2.63v6.572c0-4.457,4.857-2.862,4.857,5.42c0,5.276,0,17.801,0,26.205L170.551,210.721z"/>
			</g>
			<g id="Text">
				<g>
					<path style="fill:#27DEBF;" d="M309.935,407.333c-0.768,0.443-1.391,1.522-1.391,2.409c0,0.887,0.623,1.246,1.391,0.803
						c0.768-0.443,1.391-1.522,1.391-2.409C311.326,407.249,310.703,406.89,309.935,407.333z"/>
					<path style="fill:#27DEBF;" d="M309.935,423.31c-0.768,0.444-1.391,1.522-1.391,2.409c0,0.887,0.623,1.246,1.391,0.803
						c0.768-0.443,1.391-1.522,1.391-2.409C311.326,423.227,310.703,422.867,309.935,423.31z"/>
					<path id="XMLID_1121_" style="fill:#27DEBF;" d="M301.03,395.556c0.679,0.571,1.905,0.788,2.739,0.486
						c0.834-0.303,0.959-1.011,0.28-1.581c-0.679-0.571-1.905-0.788-2.739-0.486C300.476,394.277,300.351,394.986,301.03,395.556z"
						/>
				</g>
				<g style="opacity:0.3;">
					<g>
						<path style="fill:#455A64;" d="M257.857,420.726c-0.172,0-0.341-0.09-0.433-0.25c-0.139-0.239-0.057-0.545,0.183-0.683
							l39.192-22.627c0.238-0.14,0.545-0.058,0.683,0.183c0.139,0.239,0.057,0.545-0.183,0.683l-39.192,22.627
							C258.028,420.705,257.942,420.726,257.857,420.726z"/>
					</g>
					<g>
						<path style="fill:#455A64;" d="M263.204,426.278c-0.172,0-0.341-0.09-0.433-0.25c-0.139-0.239-0.057-0.545,0.183-0.683
							l39.191-22.628c0.239-0.139,0.545-0.058,0.683,0.183c0.139,0.239,0.057,0.545-0.183,0.683l-39.191,22.628
							C263.375,426.257,263.289,426.278,263.204,426.278z"/>
					</g>
					<g>
						<path style="fill:#455A64;" d="M265.904,433.933c-0.172,0-0.341-0.09-0.433-0.25c-0.139-0.239-0.057-0.545,0.183-0.683
							l39.192-22.627c0.239-0.141,0.545-0.057,0.683,0.183c0.139,0.239,0.057,0.545-0.183,0.683l-39.192,22.627
							C266.075,433.912,265.989,433.933,265.904,433.933z"/>
					</g>
					<g>
						<path style="fill:#455A64;" d="M265.98,441.834c-0.172,0-0.341-0.09-0.433-0.25c-0.139-0.239-0.057-0.545,0.183-0.683
							l39.192-22.627c0.238-0.14,0.545-0.057,0.683,0.183c0.139,0.239,0.057,0.545-0.183,0.683l-39.192,22.627
							C266.151,441.812,266.065,441.834,265.98,441.834z"/>
					</g>
					<g>
						<path style="fill:#455A64;" d="M266.071,449.733c-0.172,0-0.341-0.09-0.433-0.25c-0.139-0.239-0.057-0.545,0.183-0.683
							l39.191-22.628c0.238-0.14,0.545-0.057,0.683,0.183c0.139,0.239,0.057,0.545-0.183,0.683l-39.191,22.628
							C266.242,449.712,266.156,449.733,266.071,449.733z"/>
					</g>
					<g>
						<path style="fill:#455A64;" d="M278.171,450.891v1.15l-9.15,5.28c-0.08,0.05-0.17,0.07-0.25,0.07c-0.17,0-0.34-0.09-0.43-0.25
							c-0.14-0.24-0.06-0.55,0.18-0.68L278.171,450.891z"/>
					</g>
					<g>
						<path style="fill:#455A64;" d="M278.171,459.521v0.57c0,0.2-0.01,0.4-0.02,0.59l-3.8,2.19c-0.08,0.05-0.16,0.07-0.25,0.07
							c-0.17,0-0.34-0.09-0.43-0.25c-0.14-0.24-0.06-0.54,0.18-0.68L278.171,459.521z"/>
					</g>
				</g>
				<g>
					<path style="fill:#27DEBF;" d="M277.4,368.346c-0.768,0.444-1.391,1.522-1.391,2.409c0,0.887,0.623,1.247,1.391,0.803
						c0.768-0.444,1.391-1.522,1.391-2.409C278.791,368.263,278.168,367.903,277.4,368.346z"/>
					<path style="fill:#27DEBF;" d="M277.4,385.787c-0.768,0.444-1.391,1.522-1.391,2.409c0,0.887,0.623,1.247,1.391,0.803
						c0.768-0.444,1.391-1.522,1.391-2.409C278.791,385.703,278.168,385.344,277.4,385.787z"/>
					<path style="fill:#27DEBF;" d="M278.791,404.031c0,0.15-0.02,0.3-0.06,0.45l-2.67,1.54c-0.03-0.11-0.05-0.24-0.05-0.38
						c0-0.89,0.62-1.97,1.39-2.41C278.171,402.781,278.791,403.141,278.791,404.031z"/>
					<path id="XMLID_1120_" style="fill:#27DEBF;" d="M266.616,356.233c0.679,0.571,1.905,0.788,2.739,0.486s0.959-1.011,0.28-1.582
						c-0.679-0.571-1.905-0.788-2.739-0.485C266.062,354.954,265.937,355.662,266.616,356.233z"/>
				</g>
				<g style="opacity:0.4;">
					<g>
						<path style="fill:#455A64;" d="M223.331,381.913c-0.173,0-0.341-0.09-0.434-0.25c-0.138-0.239-0.056-0.545,0.184-0.684
							l39.749-22.92c0.239-0.137,0.545-0.056,0.684,0.184c0.138,0.239,0.056,0.545-0.184,0.684l-39.749,22.92
							C223.502,381.891,223.416,381.913,223.331,381.913z"/>
					</g>
					<g>
						<path style="fill:#455A64;" d="M229.222,387.634c-0.173,0-0.341-0.09-0.434-0.25c-0.138-0.239-0.056-0.545,0.184-0.684
							l39.749-22.919c0.24-0.138,0.544-0.056,0.684,0.184c0.138,0.239,0.056,0.545-0.184,0.684l-39.749,22.919
							C229.393,387.612,229.307,387.634,229.222,387.634z"/>
					</g>
					<g>
						<path style="fill:#455A64;" d="M232.877,395.672c-0.173,0-0.341-0.09-0.434-0.25c-0.138-0.239-0.056-0.545,0.184-0.684
							l39.749-22.92c0.24-0.137,0.545-0.056,0.684,0.184c0.138,0.239,0.056,0.545-0.184,0.684l-39.749,22.92
							C233.048,395.65,232.962,395.672,232.877,395.672z"/>
					</g>
					<g>
						<path style="fill:#455A64;" d="M233.48,404.101c-0.173,0-0.341-0.09-0.434-0.25c-0.138-0.239-0.056-0.545,0.184-0.684
							l39.749-22.92c0.239-0.138,0.545-0.056,0.684,0.184c0.138,0.239,0.056,0.545-0.184,0.684l-39.749,22.92
							C233.651,404.08,233.565,404.101,233.48,404.101z"/>
					</g>
					<g>
						<path style="fill:#455A64;" d="M233.48,412.646c-0.173,0-0.341-0.09-0.434-0.25c-0.138-0.239-0.056-0.545,0.184-0.684
							l39.749-22.92c0.239-0.138,0.545-0.056,0.684,0.184c0.138,0.239,0.056,0.545-0.184,0.684l-39.749,22.92
							C233.651,412.625,233.565,412.646,233.48,412.646z"/>
					</g>
					<g>
						<path style="fill:#455A64;" d="M233.48,421.191c-0.173,0-0.341-0.09-0.434-0.25c-0.138-0.239-0.056-0.545,0.184-0.684
							l39.749-22.92c0.239-0.138,0.545-0.056,0.684,0.184c0.138,0.239,0.056,0.545-0.184,0.684l-39.749,22.92
							C233.651,421.17,233.565,421.191,233.48,421.191z"/>
					</g>
					<g>
						<path style="fill:#455A64;" d="M233.485,429.719c-0.173,0-0.341-0.09-0.434-0.25c-0.138-0.239-0.056-0.545,0.184-0.684
							l39.749-22.92c0.239-0.137,0.545-0.056,0.684,0.184c0.138,0.239,0.056,0.545-0.184,0.684l-39.749,22.92
							C233.656,429.698,233.57,429.719,233.485,429.719z"/>
					</g>
					<g>
						<path style="fill:#455A64;" d="M245.671,431.301v1.16l-9.47,5.46c-0.08,0.04-0.16,0.07-0.25,0.07c-0.17,0-0.34-0.09-0.43-0.25
							c-0.14-0.24-0.06-0.55,0.18-0.69L245.671,431.301z"/>
					</g>
					<g>
						<path style="fill:#455A64;" d="M245.671,440.641v0.07c0,0.39-0.02,0.76-0.06,1.12l-3.75,2.16c-0.08,0.05-0.17,0.07-0.25,0.07
							c-0.17,0-0.34-0.09-0.43-0.25c-0.14-0.24-0.06-0.54,0.18-0.68L245.671,440.641z"/>
					</g>
				</g>
				<g>
					<path id="XMLID_1126_" style="fill:#27DEBF;" d="M221.777,158.285c-0.768,0.444-1.391,1.522-1.391,2.409
						c0,0.887,0.623,1.246,1.391,0.803c0.768-0.444,1.391-1.522,1.391-2.409C223.168,158.201,222.545,157.841,221.777,158.285z"/>
					<path id="XMLID_1118_" style="fill:#27DEBF;" d="M215.726,144.038c0.679,0.571,1.905,0.788,2.739,0.486
						c0.834-0.303,0.959-1.011,0.28-1.581c-0.679-0.571-1.905-0.788-2.739-0.486C215.173,142.759,215.047,143.467,215.726,144.038z"
						/>
					<path style="fill:#27DEBF;" d="M221.777,183.099c-0.768,0.444-1.391,1.522-1.391,2.409c0,0.887,0.623,1.247,1.391,0.803
						c0.768-0.444,1.391-1.522,1.391-2.409C223.168,183.015,222.545,182.655,221.777,183.099z"/>
					<path style="fill:#27DEBF;" d="M221.777,199.642c-0.768,0.443-1.391,1.522-1.391,2.409c0,0.887,0.623,1.246,1.391,0.803
						c0.768-0.443,1.391-1.522,1.391-2.409C223.168,199.557,222.545,199.198,221.777,199.642z"/>
					<path style="fill:#27DEBF;" d="M221.777,216.184c-0.768,0.444-1.391,1.522-1.391,2.409c0,0.887,0.623,1.246,1.391,0.803
						c0.768-0.444,1.391-1.522,1.391-2.409C223.168,216.1,222.545,215.741,221.777,216.184z"/>
					<path style="fill:#27DEBF;" d="M221.777,232.727c-0.768,0.444-1.391,1.522-1.391,2.409c0,0.887,0.623,1.247,1.391,0.803
						c0.768-0.444,1.391-1.522,1.391-2.409C223.168,232.643,222.545,232.283,221.777,232.727z"/>
					<path style="fill:#27DEBF;" d="M221.777,249.27c-0.768,0.444-1.391,1.522-1.391,2.409c0,0.887,0.623,1.247,1.391,0.803
						c0.768-0.443,1.391-1.522,1.391-2.409C223.168,249.186,222.545,248.826,221.777,249.27z"/>
					<path style="fill:#27DEBF;" d="M221.777,265.813c-0.768,0.444-1.391,1.522-1.391,2.409c0,0.887,0.623,1.247,1.391,0.803
						c0.768-0.444,1.391-1.522,1.391-2.409C223.168,265.728,222.545,265.369,221.777,265.813z"/>
					<path style="fill:#27DEBF;" d="M221.777,282.355c-0.768,0.444-1.391,1.522-1.391,2.409c0,0.887,0.623,1.247,1.391,0.803
						c0.768-0.443,1.391-1.522,1.391-2.409C223.168,282.271,222.545,281.912,221.777,282.355z"/>
					<path style="fill:#27DEBF;" d="M221.777,298.898c-0.768,0.444-1.391,1.522-1.391,2.409c0,0.887,0.623,1.246,1.391,0.803
						c0.768-0.444,1.391-1.522,1.391-2.409C223.168,298.814,222.545,298.454,221.777,298.898z"/>
					<path style="fill:#27DEBF;" d="M221.777,315.441c-0.768,0.444-1.391,1.522-1.391,2.409c0,0.887,0.623,1.246,1.391,0.803
						c0.768-0.444,1.391-1.522,1.391-2.409C223.168,315.357,222.545,314.997,221.777,315.441z"/>
					<path style="fill:#27DEBF;" d="M221.777,331.983c-0.768,0.444-1.391,1.522-1.391,2.409c0,0.887,0.623,1.247,1.391,0.803
						c0.768-0.444,1.391-1.522,1.391-2.409C223.168,331.9,222.545,331.54,221.777,331.983z"/>
					<path style="fill:#27DEBF;" d="M221.777,348.526c-0.768,0.444-1.391,1.522-1.391,2.409c0,0.887,0.623,1.246,1.391,0.803
						c0.768-0.443,1.391-1.522,1.391-2.409C223.168,348.442,222.545,348.083,221.777,348.526z"/>
					<path id="XMLID_1125_" style="fill:#27DEBF;" d="M221.777,365.069c-0.768,0.444-1.391,1.522-1.391,2.409
						c0,0.887,0.623,1.246,1.391,0.803c0.768-0.444,1.391-1.522,1.391-2.409C223.168,364.985,222.545,364.625,221.777,365.069z"/>
				</g>
				<g style="opacity:0.5;">
					<g>
						<path style="fill:#455A64;" d="M172.633,169.741c-0.172,0-0.341-0.09-0.433-0.25c-0.139-0.239-0.057-0.545,0.183-0.683
							l40.541-23.405c0.238-0.14,0.545-0.058,0.683,0.183c0.139,0.239,0.057,0.545-0.183,0.683l-40.541,23.405
							C172.804,169.719,172.718,169.741,172.633,169.741z"/>
					</g>
					<g>
						<path style="fill:#455A64;" d="M176.343,176.883c-0.172,0-0.341-0.09-0.433-0.25c-0.139-0.239-0.057-0.545,0.183-0.683
							l40.541-23.405c0.237-0.139,0.545-0.058,0.683,0.183c0.139,0.239,0.057,0.545-0.183,0.683l-40.541,23.405
							C176.514,176.861,176.428,176.883,176.343,176.883z"/>
					</g>
					<g>
						<path style="fill:#455A64;" d="M177.336,185.073c-0.172,0-0.341-0.09-0.433-0.25c-0.139-0.239-0.057-0.545,0.183-0.683
							l40.54-23.405c0.239-0.141,0.545-0.057,0.683,0.183c0.139,0.239,0.057,0.545-0.183,0.683l-40.54,23.405
							C177.507,185.051,177.421,185.073,177.336,185.073z"/>
					</g>
					<g>
						<path style="fill:#455A64;" d="M177.336,193.372c-0.172,0-0.341-0.09-0.433-0.25c-0.139-0.239-0.057-0.545,0.183-0.683
							l40.54-23.405c0.239-0.139,0.545-0.058,0.683,0.183c0.139,0.239,0.057,0.545-0.183,0.683l-40.54,23.405
							C177.507,193.35,177.421,193.372,177.336,193.372z"/>
					</g>
					<g>
						<path style="fill:#455A64;" d="M177.336,201.671c-0.172,0-0.341-0.09-0.433-0.25c-0.139-0.239-0.057-0.545,0.183-0.683
							l40.54-23.406c0.239-0.14,0.545-0.057,0.683,0.183c0.139,0.239,0.057,0.545-0.183,0.683l-40.54,23.406
							C177.507,201.65,177.421,201.671,177.336,201.671z"/>
					</g>
					<g>
						<path style="fill:#455A64;" d="M177.336,209.97c-0.172,0-0.341-0.09-0.433-0.25c-0.139-0.239-0.057-0.545,0.183-0.683
							l40.54-23.405c0.239-0.14,0.545-0.057,0.683,0.183c0.139,0.239,0.057,0.545-0.183,0.683l-40.54,23.405
							C177.507,209.949,177.421,209.97,177.336,209.97z"/>
					</g>
					<g>
						<path style="fill:#455A64;" d="M177.336,218.269c-0.172,0-0.341-0.09-0.433-0.25c-0.139-0.239-0.057-0.545,0.183-0.683
							l40.54-23.405c0.239-0.14,0.545-0.057,0.683,0.183c0.139,0.239,0.057,0.545-0.183,0.683l-40.54,23.405
							C177.507,218.248,177.421,218.269,177.336,218.269z"/>
					</g>
					<g>
						<path style="fill:#455A64;" d="M177.336,226.568c-0.172,0-0.341-0.09-0.433-0.25c-0.139-0.239-0.057-0.545,0.183-0.683
							l40.54-23.405c0.239-0.14,0.545-0.057,0.683,0.183c0.139,0.239,0.057,0.545-0.183,0.683l-40.54,23.405
							C177.507,226.546,177.421,226.568,177.336,226.568z"/>
					</g>
					<g>
						<path style="fill:#455A64;" d="M177.336,234.868c-0.172,0-0.341-0.09-0.433-0.25c-0.139-0.239-0.057-0.545,0.183-0.683
							l40.54-23.406c0.239-0.139,0.545-0.058,0.683,0.183c0.139,0.239,0.057,0.545-0.183,0.683l-40.54,23.406
							C177.507,234.846,177.421,234.868,177.336,234.868z"/>
					</g>
					<g>
						<path style="fill:#455A64;" d="M177.336,243.167c-0.172,0-0.341-0.09-0.433-0.25c-0.139-0.239-0.057-0.545,0.183-0.683
							l40.54-23.405c0.239-0.139,0.545-0.058,0.683,0.183c0.139,0.239,0.057,0.545-0.183,0.683l-40.54,23.405
							C177.507,243.145,177.421,243.167,177.336,243.167z"/>
					</g>
					<g>
						<path style="fill:#455A64;" d="M177.336,251.465c-0.172,0-0.341-0.09-0.433-0.25c-0.139-0.239-0.057-0.545,0.183-0.683
							l40.54-23.405c0.239-0.14,0.545-0.057,0.683,0.183c0.139,0.239,0.057,0.545-0.183,0.683l-40.54,23.405
							C177.507,251.444,177.421,251.465,177.336,251.465z"/>
					</g>
					<g>
						<path style="fill:#455A64;" d="M177.336,259.765c-0.172,0-0.341-0.09-0.433-0.25c-0.139-0.239-0.057-0.545,0.183-0.683
							l40.54-23.406c0.239-0.14,0.545-0.057,0.683,0.183c0.139,0.239,0.057,0.545-0.183,0.683l-40.54,23.406
							C177.507,259.744,177.421,259.765,177.336,259.765z"/>
					</g>
					<g>
						<path style="fill:#455A64;" d="M177.336,268.064c-0.172,0-0.341-0.09-0.433-0.25c-0.139-0.239-0.057-0.545,0.183-0.683
							l40.54-23.405c0.239-0.14,0.545-0.057,0.683,0.183c0.139,0.239,0.057,0.545-0.183,0.683l-40.54,23.405
							C177.507,268.043,177.421,268.064,177.336,268.064z"/>
					</g>
					<g>
						<path style="fill:#455A64;" d="M177.336,276.363c-0.172,0-0.341-0.09-0.433-0.25c-0.139-0.239-0.057-0.545,0.183-0.683
							l40.54-23.405c0.239-0.14,0.545-0.058,0.683,0.183c0.139,0.239,0.057,0.545-0.183,0.683l-40.54,23.405
							C177.507,276.341,177.421,276.363,177.336,276.363z"/>
					</g>
					<g>
						<path style="fill:#455A64;" d="M177.336,284.662c-0.172,0-0.341-0.09-0.433-0.25c-0.139-0.239-0.057-0.545,0.183-0.683
							l40.54-23.405c0.239-0.141,0.545-0.058,0.683,0.183c0.139,0.239,0.057,0.545-0.183,0.683l-40.54,23.405
							C177.507,284.64,177.421,284.662,177.336,284.662z"/>
					</g>
					<g>
						<path style="fill:#455A64;" d="M177.336,292.962c-0.172,0-0.341-0.09-0.433-0.25c-0.139-0.239-0.057-0.545,0.183-0.683
							l40.54-23.405c0.239-0.14,0.545-0.057,0.683,0.183c0.139,0.239,0.057,0.545-0.183,0.683l-40.54,23.405
							C177.507,292.94,177.421,292.962,177.336,292.962z"/>
					</g>
					<g>
						<path style="fill:#455A64;" d="M177.336,301.26c-0.172,0-0.341-0.09-0.433-0.25c-0.139-0.239-0.057-0.545,0.183-0.683
							l40.54-23.405c0.239-0.139,0.545-0.058,0.683,0.183c0.139,0.239,0.057,0.545-0.183,0.683l-40.54,23.405
							C177.507,301.239,177.421,301.26,177.336,301.26z"/>
					</g>
					<g>
						<path style="fill:#455A64;" d="M177.336,309.559c-0.172,0-0.341-0.09-0.433-0.25c-0.139-0.239-0.057-0.545,0.183-0.683
							l40.54-23.405c0.239-0.14,0.545-0.057,0.683,0.183c0.139,0.239,0.057,0.545-0.183,0.683l-40.54,23.405
							C177.507,309.538,177.421,309.559,177.336,309.559z"/>
					</g>
					<g>
						<path style="fill:#455A64;" d="M177.336,317.859c-0.172,0-0.341-0.09-0.433-0.25c-0.139-0.239-0.057-0.545,0.183-0.683
							l40.54-23.406c0.239-0.14,0.545-0.058,0.683,0.183c0.139,0.239,0.057,0.545-0.183,0.683l-40.54,23.406
							C177.507,317.838,177.421,317.859,177.336,317.859z"/>
					</g>
					<g>
						<path style="fill:#455A64;" d="M177.336,326.158c-0.172,0-0.341-0.09-0.433-0.25c-0.139-0.239-0.057-0.545,0.183-0.683
							l40.54-23.405c0.239-0.14,0.545-0.057,0.683,0.183c0.139,0.239,0.057,0.545-0.183,0.683l-40.54,23.405
							C177.507,326.136,177.421,326.158,177.336,326.158z"/>
					</g>
					<g>
						<path style="fill:#455A64;" d="M177.336,334.457c-0.172,0-0.341-0.09-0.433-0.25c-0.139-0.239-0.057-0.545,0.183-0.683
							l40.54-23.405c0.239-0.14,0.545-0.057,0.683,0.183c0.139,0.239,0.057,0.545-0.183,0.683l-40.54,23.405
							C177.507,334.435,177.421,334.457,177.336,334.457z"/>
					</g>
					<g>
						<path style="fill:#455A64;" d="M177.336,342.755c-0.172,0-0.341-0.09-0.433-0.25c-0.139-0.239-0.057-0.545,0.183-0.683
							l40.54-23.405c0.239-0.141,0.545-0.058,0.683,0.183c0.139,0.239,0.057,0.545-0.183,0.683l-40.54,23.405
							C177.507,342.734,177.421,342.755,177.336,342.755z"/>
					</g>
					<g>
						<path style="fill:#455A64;" d="M177.336,351.055c-0.172,0-0.341-0.09-0.433-0.25c-0.139-0.239-0.057-0.545,0.183-0.683
							l40.54-23.405c0.239-0.141,0.545-0.058,0.683,0.183c0.139,0.239,0.057,0.545-0.183,0.683l-40.54,23.405
							C177.507,351.034,177.421,351.055,177.336,351.055z"/>
					</g>
					<g>
						<path style="fill:#455A64;" d="M177.336,359.354c-0.172,0-0.341-0.09-0.433-0.25c-0.139-0.239-0.057-0.545,0.183-0.683
							l40.54-23.405c0.239-0.139,0.545-0.058,0.683,0.183c0.139,0.239,0.057,0.545-0.183,0.683l-40.54,23.405
							C177.507,359.333,177.421,359.354,177.336,359.354z"/>
					</g>
					<g>
						<path style="fill:#455A64;" d="M177.336,367.653c-0.172,0-0.341-0.09-0.433-0.25c-0.139-0.239-0.057-0.545,0.183-0.683
							l40.54-23.405c0.239-0.14,0.545-0.057,0.683,0.183c0.139,0.239,0.057,0.545-0.183,0.683l-40.54,23.405
							C177.507,367.632,177.421,367.653,177.336,367.653z"/>
					</g>
					<g>
						<path style="fill:#455A64;" d="M177.336,375.953c-0.172,0-0.341-0.09-0.433-0.25c-0.139-0.239-0.057-0.545,0.183-0.683
							l40.54-23.406c0.239-0.14,0.545-0.057,0.683,0.183c0.139,0.239,0.057,0.545-0.183,0.683l-40.54,23.406
							C177.507,375.931,177.421,375.953,177.336,375.953z"/>
					</g>
					<g>
						<path style="fill:#455A64;" d="M177.336,384.252c-0.172,0-0.341-0.09-0.433-0.25c-0.139-0.239-0.057-0.545,0.183-0.683
							l40.54-23.405c0.239-0.14,0.545-0.058,0.683,0.183c0.139,0.239,0.057,0.545-0.183,0.683l-40.54,23.405
							C177.507,384.23,177.421,384.252,177.336,384.252z"/>
					</g>
					<g>
						<path style="fill:#455A64;" d="M177.61,392.307c-0.172,0-0.341-0.09-0.433-0.25c-0.139-0.239-0.057-0.545,0.183-0.683
							l40.54-23.405c0.239-0.139,0.545-0.058,0.683,0.183c0.139,0.239,0.057,0.545-0.183,0.683l-40.54,23.405
							C177.781,392.286,177.695,392.307,177.61,392.307z"/>
					</g>
					<g>
						<path style="fill:#455A64;" d="M179.8,400.295c-0.172,0-0.341-0.09-0.433-0.25c-0.139-0.239-0.057-0.545,0.183-0.683
							l40.541-23.405c0.239-0.14,0.545-0.057,0.683,0.183c0.139,0.239,0.057,0.545-0.183,0.683l-40.541,23.405
							C179.971,400.273,179.885,400.295,179.8,400.295z"/>
					</g>
					<g>
						<path style="fill:#455A64;" d="M183.571,406.991l25.54-14.74v1.15l-25.04,14.46c-0.08,0.04-0.17,0.06-0.25,0.06
							c-0.18,0-0.35-0.09-0.44-0.25C183.241,407.441,183.331,407.131,183.571,406.991z"/>
					</g>
					<g>
						<path style="fill:#455A64;" d="M190.192,412.763l18.92-10.883v1.15l-18.42,10.593c-0.08,0.05-0.16,0.07-0.25,0.07
							c-0.17,0-0.34-0.09-0.43-0.25C189.872,413.203,189.952,412.903,190.192,412.763z"/>
					</g>
					<g>
						<path style="fill:#455A64;" d="M198.344,416.477l10.767-6.156c-0.01,0.4-0.02,0.79-0.04,1.17l-10.227,5.846
							c-0.08,0.05-0.16,0.07-0.25,0.07c-0.17,0-0.34-0.09-0.43-0.25C198.024,416.917,198.104,416.617,198.344,416.477z"/>
					</g>
				</g>
				<g style="opacity:0.5;">
					<path style="fill:#455A64;" d="M160.371,196.471v1.15l-8.45,4.88c-0.08,0.05-0.16,0.07-0.25,0.07c-0.17,0-0.34-0.09-0.43-0.25
						c-0.14-0.24-0.06-0.54,0.18-0.68L160.371,196.471z"/>
					<path style="fill:#455A64;" d="M160.371,205.731v1.15l-6.26,3.61c-0.08,0.05-0.16,0.07-0.25,0.07c-0.17,0-0.34-0.09-0.43-0.25
						c-0.14-0.24-0.06-0.55,0.18-0.68L160.371,205.731z"/>
				</g>
			</g>
		</g>
		<g id="Hand">
			<g id="XMLID_3994_">
				<path id="XMLID_3995_" style="fill:#B16668;" d="M225.358,154.658c0,0-0.689,6.278-0.836,7.771
					c-0.147,1.493-4.923,4.976-8.186,6.525c-3.263,1.549-6.817,3.33-4.345,7.838c2.279,4.158,8.102,4.168,10.953,3.535
					c2.851-0.633,6.3-4.076,7.066-8.778c0.977-5.997-1.155-11.841-0.954-15.278C229.258,152.834,226.729,152.386,225.358,154.658z"
					/>
			</g>
		</g>
	</g>
</g>
</svg>
